<svg width="45" height="45" viewBox="0 0 45 45" fill="none" xmlns="http://www.w3.org/2000/svg">
<path fill-rule="evenodd" clip-rule="evenodd" d="M22.5 41C32.7173 41 41 32.7173 41 22.5C41 12.2827 32.7173 4 22.5 4C12.2827 4 4 12.2827 4 22.5C4 32.7173 12.2827 41 22.5 41ZM22.5 45C34.9264 45 45 34.9264 45 22.5C45 10.0736 34.9264 0 22.5 0C10.0736 0 0 10.0736 0 22.5C0 34.9264 10.0736 45 22.5 45Z" fill="white" style="mix-blend-mode:exclusion"/>
<path fill-rule="evenodd" clip-rule="evenodd" d="M22.3137 36.1421L9.58579 23.4142C8.80474 22.6331 8.80474 21.3668 9.58579 20.5858L22.3137 7.85785C23.0948 7.0768 24.3611 7.0768 25.1421 7.85785C25.9232 8.6389 25.9232 9.90523 25.1421 10.6863L15.8284 20L34 20C35.1046 20 36 20.8954 36 22C36 23.1046 35.1046 24 34 24L15.8284 24L25.1421 33.3137C25.9232 34.0947 25.9232 35.3611 25.1421 36.1421C24.3611 36.9232 23.0948 36.9232 22.3137 36.1421Z" fill="white" style="mix-blend-mode:exclusion"/>
</svg>
