<svg width="284" height="724" viewBox="0 0 284 724" fill="none" xmlns="http://www.w3.org/2000/svg">
<path d="M221.258 29.7642C181.628 2.89717 115.964 -14.5154 74.888 16.5734C61.8433 23.4545 50.2705 14.7431 37.681 12.8118C28.9407 12.018 19.9677 12.1191 11.1617 13.0899C-6.8652 17.6705 0.742101 57.3088 7.71209 70.6462C36.6542 84.0241 81.9136 33.0607 102.075 79.7418C103.663 92.1338 107.27 103.484 112.94 114.486C115.6 139.796 114.3 165.176 115.443 190.446C115.57 246.172 120.724 302.363 109.46 356.81C102.05 426.395 108.468 496.469 104.523 566.21C105.934 605.561 100.001 644.521 99.8696 683.871C101.402 709.641 87.7405 720.896 120.769 724C233.655 714.692 168.578 723.747 179.589 583.279C181.795 518.26 181.947 452.488 181.653 387.11C176.797 334.074 168.037 281.887 168.75 228.4C167.116 189.414 171.532 150.55 171.077 111.503C177.45 102.463 179.352 93.2259 177.248 82.295C175.806 23.3281 251.55 92.4978 263.867 112.964C320.218 160.99 242.618 32.8888 221.258 29.7541V29.7642Z" fill="#00FFFF" style="mix-blend-mode:difference"/>
</svg>
