<svg width="824" height="885" viewBox="0 0 824 885" fill="none" xmlns="http://www.w3.org/2000/svg">
<path fill-rule="evenodd" clip-rule="evenodd" d="M822.277 403.898L822.059 403.939L822.034 403.898H822.277ZM304.089 656.675C300.708 660.711 296.887 664.288 293.098 667.837C285.062 675.362 277.164 682.756 273.893 694.127C273.63 694.055 273.379 693.983 273.128 693.912L273.115 693.908C272.86 693.835 272.604 693.762 272.337 693.689C273.261 689.701 274.185 685.712 275.157 681.529C270.249 685.212 269.489 688.645 268.922 691.205C268.029 695.24 267.615 697.108 252.206 694.37C276.762 669.272 305.985 627.297 280.7 594.174C284.639 587.413 289.015 582.938 296.892 582.452C320.863 574.795 329.762 550.015 337.715 527.871C338.603 525.4 339.479 522.961 340.362 520.583C348.281 540.373 343.72 552.094 339.826 562.1C336.906 569.604 334.361 576.143 337.736 584.397C330.609 591.19 326.426 601.256 322.463 610.792C320.127 616.413 317.867 621.85 315.126 626.324C319.502 630.458 322.517 633.28 324.9 635.468C326.56 631.848 328.626 628.099 330.752 624.237C337.655 611.704 345.206 597.995 341.675 583.716C342.443 583.194 343.269 582.72 344.095 582.246C347.346 580.379 350.592 578.516 350.282 573.745C351.585 569.465 353.388 565.345 355.173 561.265L355.173 561.264C359.981 550.276 364.662 539.577 359.131 526.809C357.957 523.97 356.413 521.229 354.865 518.482C353.337 515.769 351.806 513.05 350.622 510.223C350.015 508.801 348.749 507.564 347.48 506.324C344.583 503.491 341.668 500.642 346.537 495.534C346.947 495.09 346.734 494.071 346.52 493.049C346.429 492.615 346.338 492.18 346.294 491.789C353.188 495.12 358.539 489.905 363.356 485.211C364.586 484.012 365.782 482.846 366.96 481.866C367.483 482.806 368.016 483.741 368.548 484.675C372.622 491.819 376.652 498.889 375.663 507.061C371.53 524.523 383.638 547.967 402.553 534.688L404.595 536.877C403.524 537.437 402.454 537.984 401.384 538.532L401.368 538.54C400.304 539.084 399.24 539.628 398.176 540.184L398.76 541.741C406.754 541.292 414.509 539.053 422.206 536.832L422.207 536.832L422.209 536.831L422.21 536.831L422.212 536.831L422.214 536.83L422.215 536.83L422.217 536.829C427.015 535.444 431.792 534.065 436.59 533.132C457.79 540.865 480.254 547.529 502.038 552.685C493.714 545.283 481.62 541.945 469.826 538.689L469.825 538.689C464.258 537.152 458.759 535.634 453.754 533.716C434.888 526.322 415.341 523.064 396.718 533.472C391.612 525.106 390.98 518.832 394.335 509.591C390.251 497.431 385.68 484.931 374.496 477.1C365.452 471.749 373.913 454.142 383.443 454.142C390.982 453.967 391.686 452.764 395.741 445.83C396.184 445.072 396.667 444.245 397.204 443.344C404.316 445.597 411.815 448.142 419.491 450.747C435.848 456.298 453.006 462.121 468.925 465.961C471.539 466.04 473.334 467.39 475.018 468.656C477.5 470.522 479.74 472.206 483.998 469.366C483.929 469.877 483.87 470.411 483.812 470.94L483.812 470.942C483.748 471.52 483.685 472.092 483.609 472.625C486.718 473.636 490.057 473.443 493.283 473.257C498.433 472.959 503.293 472.677 506.463 477.343C539.299 489.881 577.625 467.876 607.693 450.612L607.699 450.609C610.755 448.854 613.726 447.148 616.596 445.533C639.757 442.538 662.29 437.183 684.909 431.808C696.814 428.979 708.743 426.145 720.798 423.645C735.176 419.056 750.741 418.163 766.203 417.277C786.3 416.125 806.225 414.982 823.152 405.746C822.958 405.43 822.775 405.126 822.593 404.822C822.418 404.531 822.244 404.241 822.059 403.939C800.999 407.912 779.753 411.331 758.469 414.756L758.464 414.756C719.423 421.038 680.256 427.341 641.881 437.118L641.507 437.186C606.096 443.613 585.712 447.313 555.816 469.366C532.82 473.779 512.523 466.811 492.058 459.785C477.559 454.807 462.975 449.8 447.287 448.792C440.685 448.48 434.987 445.937 429.338 443.415C420.884 439.641 412.54 435.916 401.434 439.794C399.027 435.288 393.859 435.466 388.631 435.646H388.63H388.629H388.628H388.627H388.626H388.625H388.624C387.308 435.692 385.988 435.737 384.707 435.708C385.32 434.023 385.631 432.021 385.938 430.05C386.409 427.015 386.87 424.052 388.403 422.43C406.686 411.68 409.798 385.367 398.76 368.538C419.62 369.073 428.81 352.487 435.568 335.949C453.219 306.961 442.668 268.779 428.469 240.52C436.492 221.891 403.476 184.342 399.878 182.056C362.486 130.304 312.16 175.587 303.943 222.523C301.56 227.728 300.879 245.627 306.082 253.02C306.374 253.409 305.79 258.176 305.061 262.213C296.698 290.423 299.907 317.758 317.703 341.64C326.796 360.172 339.925 371.018 361.271 370.532C361.1 370.922 360.929 371.311 360.758 371.7L360.748 371.722C355.77 383.055 351.037 393.832 358.742 405.017C355.584 406.291 352.541 407.522 349.567 408.725L349.559 408.729L349.48 408.76L349.465 408.766C347.026 409.753 344.633 410.722 342.259 411.68C340.129 408.693 337.975 404.432 335.664 399.862C330.113 388.884 323.661 376.126 314.494 374.958C314.762 374.885 315.017 374.8 315.272 374.715C315.527 374.63 315.783 374.544 316.05 374.471C315.72 371.595 313.962 370.422 312.199 369.245C310.325 367.994 308.446 366.739 308.27 363.43C308.173 362.36 306.422 356.718 301.511 358.615C301.215 358.747 300.428 357.629 299.634 356.501L299.634 356.501C299.255 355.964 298.875 355.424 298.545 355.016C298.74 354.87 298.983 354.724 299.177 354.627C299.615 355.016 300.065 355.393 300.515 355.77C300.965 356.147 301.414 356.524 301.852 356.913C295.677 338.479 282.791 319.753 269.176 305.21C267.815 300.638 264.703 292.077 262.029 291.591L248.56 248.74C248.219 244.849 247.636 240.958 246.761 237.066H246.809C244.573 221.867 240.935 215.524 236.437 207.682L236.437 207.682C234.285 203.93 231.936 199.836 229.45 194.264C235.439 187.892 232.042 182.781 228.106 176.858C227.535 175.999 226.953 175.124 226.387 174.225C220.181 152.898 208.205 115.659 196.644 79.7112L196.642 79.7039L196.64 79.7007L196.64 79.6998C186.556 48.3423 176.788 17.9692 171.442 0C161.474 3.16153 160.744 4.52342 167.114 12.5002C187.713 58.885 205.944 120.819 223.093 179.073L224.092 182.465C224.501 183.855 224.909 185.243 225.317 186.628H225.269C225.609 187.698 226.193 189.546 226.484 190.47H226.533C227.214 193.048 229.839 199.468 230.909 202.046C232.284 204.381 232.186 207.073 232.088 209.766C231.957 213.357 231.826 216.951 235.188 219.702C235.577 220.043 235.431 221.745 234.945 222.329C231.921 228.773 235.186 235.938 238.23 242.618C239.298 244.963 240.339 247.247 241.072 249.421C241.808 250.801 242.079 252.419 242.358 254.078C242.963 257.68 243.602 261.479 249.095 263.477C249.167 263.95 249.243 264.453 249.324 264.983C251.091 276.575 254.865 301.346 259.84 310.463H269.322C269.322 310.803 269.274 311.192 269.225 311.533C268.057 311.952 266.888 312.39 265.641 312.858C264.863 313.149 264.054 313.453 263.196 313.77C265.635 317.105 267.574 321.06 269.511 325.012C273.366 332.874 277.213 340.721 284.979 343.634C288.096 349.541 291.891 354.985 295.674 360.411C301.393 368.614 307.083 376.776 310.361 386.437C311.481 391.628 313.624 396.965 315.76 402.285C321.511 416.603 327.208 430.79 312.744 441.642C307.427 436.843 304.98 432.011 305.401 427.147C304.261 427.534 303.14 427.99 302.04 428.438C297.185 430.413 292.736 432.223 288.772 427.147C284.025 423.245 277.561 422.995 271.197 422.75C268.043 422.628 264.913 422.507 262.029 421.943C257.582 421.393 256.344 424.582 255.102 427.781C253.818 431.089 252.529 434.408 247.684 433.616C238.543 432.887 232.076 441.691 242.579 445.728C248.943 448.564 258.928 444.646 268.644 440.833C282.088 435.558 295.018 430.484 297.135 443.782C297.152 448.699 299.509 453.369 301.59 457.493C305.561 465.362 308.529 471.244 292.321 473.063C292.65 472.114 292.896 471.33 293.142 470.545C293.224 470.284 293.306 470.023 293.391 469.755C268.982 464.113 240.245 464.551 228.235 491.205C230.569 492.324 233.097 493.54 236.744 495.339C233.936 496.588 232.089 498.681 230.339 500.665C227.998 503.319 225.83 505.776 221.768 505.748L221.772 505.74L221.773 505.74L221.773 505.739L221.773 505.738L221.774 505.738L221.774 505.737L221.774 505.736L221.775 505.736C224.009 501.946 226.244 498.156 228.429 494.367C228.089 494.099 227.749 493.819 227.408 493.54C227.068 493.26 226.727 492.98 226.387 492.713C225.912 493.378 225.195 494.194 224.399 495.101C221.122 498.832 216.496 504.099 221.816 506.721C220.212 508.817 217.681 509.149 215.352 509.454H215.352C214.223 509.602 213.142 509.743 212.237 510.077C208.557 515.469 203.561 520.704 198.49 526.017L198.489 526.018L198.489 526.019C188.42 536.569 178.052 547.431 177.082 560.467C176.138 564.136 173.834 567.637 171.537 571.126C168.751 575.36 165.975 579.577 165.655 584.057C165.014 589.525 162.429 593.12 159.672 596.953C158.456 598.644 157.207 600.38 156.076 602.345C153.813 596.918 152.442 590.036 151.022 582.911C147.682 566.155 144.075 548.053 127.972 544.367C125.41 550.096 127.742 554.048 130.176 558.172C131.668 560.701 133.198 563.294 133.661 566.401C132.554 574.069 136.32 584.649 140.02 595.045C145.098 609.313 150.053 623.234 142.121 628.805C129.041 655.021 118.782 702.979 157.195 712.61C152.138 706.627 147.762 700.839 153.062 692.522C160.636 700.574 170.487 703.595 180.743 706.74C185.171 708.097 189.673 709.478 194.101 711.296C182.431 717.571 171.49 722.532 158.264 716.647C172.803 746.268 217.878 734.546 233.681 712.318C237.888 706.556 245.174 707.925 252.259 709.256C255.819 709.925 259.328 710.584 262.369 710.324C269.543 711.936 277.167 712.07 284.772 712.204C295.518 712.393 306.225 712.581 315.564 716.939C315.564 717.573 315.712 718.309 315.864 719.066C316.332 721.393 316.843 723.929 313.237 724.408C313.115 724.414 312.995 724.422 312.876 724.431C312.73 724.443 312.587 724.456 312.447 724.472L312.403 724.429C311.601 725.929 310.796 727.431 309.991 728.934C290.013 766.217 269.553 804.4 265.627 846.853C260.667 859.548 275.644 905.852 284.542 874.042C287.386 860.422 287.7 846.493 288.013 832.618C288.577 807.597 289.137 782.755 304.526 760.227C304.846 758.911 304.321 757.542 303.823 756.245C302.959 753.996 302.179 751.963 306.034 750.791C311.958 748.495 311.441 744.644 310.851 740.25C310.279 735.99 309.638 731.219 314.737 726.861L314.489 726.597C313.779 725.845 313.132 725.159 312.45 724.476C312.732 724.463 312.994 724.44 313.237 724.408C313.725 724.381 314.234 724.372 314.742 724.364H314.743C316.641 724.332 318.538 724.3 319.357 723.31C324.825 705.415 302.366 702.397 285.733 700.163L285.732 700.163L285.73 700.163L285.729 700.162L285.728 700.162L285.726 700.162C281.657 699.615 277.936 699.115 275.06 698.456C276.007 696.773 276.909 695.117 277.797 693.488C282.424 684.998 286.635 677.271 294.51 670.537C294.769 670.324 295.032 670.11 295.297 669.893L295.33 669.866C300.329 665.786 306.19 661.003 306.374 653.076C306.288 653.209 306.204 653.342 306.119 653.474C306.019 653.632 305.92 653.788 305.821 653.944L305.615 654.268L305.449 654.53L305.233 654.872C304.856 655.469 304.478 656.066 304.089 656.675ZM304.089 656.675L303.991 656.772C303.969 656.75 303.936 656.737 303.902 656.731C303.888 656.728 303.874 656.727 303.86 656.725C303.853 656.725 303.847 656.724 303.841 656.724C292.94 658.956 286.481 668.108 280.443 676.662L280.442 676.663C279.485 678.018 278.539 679.359 277.588 680.654C275.806 669.281 285.783 661.284 295.956 653.129C304.1 646.601 312.37 639.973 314.834 631.431C315.618 632.73 316.508 634.178 317.469 635.744C318.236 636.994 319.049 638.318 319.891 639.7C318.724 640.964 316.731 643.105 314.299 645.682C314.081 645.207 313.879 644.763 313.661 644.283C313.347 643.593 312.998 642.827 312.518 641.781L310.539 644.21C307.416 648.046 304.36 651.799 301.074 655.848C302.386 656.237 303.262 656.48 304.089 656.675ZM269.808 499.814C250.407 515.379 246.08 537.509 245.35 561.586C224.831 555.117 204.458 556.284 186.223 571.022C192.532 562.953 197.966 553.974 203.393 545.007L203.393 545.006C213.277 528.676 223.136 512.386 238.203 501.711C246.809 494.075 277.053 484.201 287.848 487.168C278.609 487.946 273.65 492.81 269.808 499.814ZM76.1868 511.439C94.8585 517.956 113.919 527.149 128.604 541.643H128.555C128.808 541.86 128.55 542.669 128.302 543.45C128.216 543.719 128.131 543.984 128.069 544.221C100.454 537.087 77.3869 518.549 54.8542 500.441C48.6619 495.464 42.5099 490.52 36.3149 485.855C32.3114 479.501 26.6269 473.934 20.9409 468.365C9.08592 456.755 -2.77583 445.139 0.576134 426.369C0.821486 426.275 1.05951 426.188 1.29306 426.102L1.29397 426.102L1.29549 426.101L1.29615 426.101L1.29726 426.101C1.66393 425.966 2.01958 425.836 2.37523 425.688C4.38868 429.658 6.38462 433.645 8.38407 437.639L8.38499 437.641L8.38641 437.644C9.71792 440.304 11.051 442.967 12.3918 445.63C23.8671 445.095 23.9644 444.949 18.8102 435.513C26.3525 438.806 37.1371 455.718 47.5354 472.024C54.0304 482.209 60.3747 492.157 65.684 498.403C65.7326 498.841 65.7326 499.279 65.7326 499.717C68.1801 501.229 70.6157 502.729 73.1272 504.276L73.2343 504.342L73.2713 504.365C75.8041 505.925 78.4155 507.533 81.1951 509.25C80.8096 509.419 80.452 509.575 80.1176 509.722L80.098 509.73C78.419 510.466 77.3272 510.945 76.2354 511.39C76.284 511.39 76.3327 511.487 76.3327 511.487C76.284 511.439 76.2354 511.439 76.1868 511.439ZM128.118 544.173V544.27H128.263V544.173H128.118ZM221.826 405.27C223.474 407.064 224.688 408.376 226.338 410.124C226.144 402.536 224.539 401.271 218.121 402.682C208.891 397.826 202.197 389.535 195.436 381.161C189.126 373.345 182.758 365.456 174.213 360.22C173.922 360.463 173.618 360.694 173.314 360.925C173.01 361.156 172.706 361.387 172.414 361.63C175.043 366.914 179.772 371.012 184.566 375.165C189.082 379.078 193.655 383.04 196.58 388.09C198.499 390.602 201.058 394.836 204.029 399.752C213.256 415.019 226.457 436.862 236.793 434.103C232.626 415.684 228.445 414.791 223.329 413.697C219.19 412.813 214.44 411.798 208.591 401.271L208.614 401.283L208.615 401.284L208.616 401.285L208.617 401.285L208.619 401.286C212.548 403.324 216.477 405.362 220.455 407.448C220.523 407.347 220.632 407.168 220.774 406.936C221.032 406.514 221.399 405.913 221.826 405.27ZM166.336 350.298C156.853 344.839 148.271 337.851 139.714 330.882C127.914 321.272 116.16 311.701 102.152 306.231C121.894 323.838 143.094 339.5 164.586 355.162C164.929 354.212 165.231 353.363 165.49 352.632C165.855 351.604 166.137 350.81 166.336 350.298ZM545.216 571.557C546.494 572.075 547.944 572.225 549.373 572.373C549.956 572.434 550.536 572.494 551.1 572.578C538.603 560.953 519.202 555.992 502.524 552.831H502.573C502.573 552.831 502.475 552.782 502.427 552.733H502.281V552.831H502.524C511.206 557.405 520.359 561.154 529.51 564.902L529.511 564.903L529.515 564.905C534.763 567.054 540.011 569.204 545.167 571.508L545.216 571.557Z" fill="#EAFF00" style="mix-blend-mode:exclusion"/>
</svg>
