<svg width="524" height="749" viewBox="0 0 524 749" fill="none" xmlns="http://www.w3.org/2000/svg">
<path d="M522.484 507.549C521.448 494.688 518.34 480.514 510.994 469.695C505.946 459.645 474.638 442.13 464.53 449.833C458.3 453.28 451.021 455.283 447.514 462.893C427.921 482.861 415.661 509.312 398.433 531.402C389.586 551.568 365.012 554.313 345.393 554.18C316.064 554.088 286.961 497.698 288.98 472.36C293.921 476.709 294.745 478.976 301.2 480.713C303.83 486.56 309.622 489.132 314.072 493.044C317.432 495.987 320.846 499.435 324.884 500.933C331.831 502.497 347.904 509.67 352.765 502.511C358.105 504.552 363.06 499.169 368.041 497.499C387.74 487.157 401.435 468.303 408.634 447.394C417.839 416.408 413.828 383.406 413.031 351.439C409.843 326.353 401.953 299.358 411.942 274.79C416.578 264.01 434.085 256.572 444.153 263.772C456.015 273.146 459.814 277.084 458.725 292.729C460.505 308.547 430.79 322.323 438.827 296.64C438.402 296.441 437.977 296.243 437.552 296.044C419.54 315.163 455.218 325.041 463.401 307.34C466.655 298.881 472.473 290.846 471.41 281.419C470.029 275.28 471.795 267.086 467 262.446C450.556 250.964 445.92 245.302 424.627 249.85C419.553 250.791 415.874 255.472 410.308 254.915C379.518 280.027 388.205 324.378 391.459 359.262C397.543 393.775 393.903 487.157 337.543 452.883C343.812 452.432 350.68 450.894 356.564 447.924C361.984 445.113 366.593 441.082 369.011 435.315C395.019 367.337 362.608 352.182 337.742 297.436C334.156 296.243 333.797 292.159 333.731 290.117C333.545 284.76 328.935 280.769 330.064 275.134C330.556 272.668 328.909 269.831 329.161 267.245C329.148 253.801 339.163 229.696 354.452 244.878C364.322 249.266 356.365 270.454 348.462 274.379C383.17 270.481 369.064 222.046 338.3 230.094C328.537 235.769 319.823 246.403 319.053 258.349C312.464 276.646 324.339 295.301 331.26 312.074C332.708 317.258 337.105 321.62 336.812 327.083C336.613 327.666 336.919 330.848 339.708 330.291C339.801 330.278 339.934 330.517 339.96 330.543C339.456 331.233 338.977 331.869 338.884 332.002C389.321 423.501 330.569 450.098 300.151 347.833C294.293 329.138 296.989 310.615 295.382 291.575C295.781 280.61 288.196 267.908 295.913 258.362C306.779 248.71 301.12 232.255 297.043 220.495C290.946 212.526 292.792 204.213 298.743 196.616C303.976 186.645 309.21 176.674 314.284 166.624C334.581 117.792 342.019 63.8546 303.365 21.5589C293.828 12.8611 281.262 6.16537 268.59 3.19538C260.66 1.76343 252.717 1.00767 244.627 1.3524C243.95 1.32589 243.299 0.477319 242.635 0C185.398 10.5673 160.226 88.8211 174.267 139.417C181.519 158.695 190.193 177.907 203.503 193.805C209.759 200.858 211.287 210.789 208.046 219.646C207.182 221.966 206.731 224.34 203.715 222.656C194.191 235.902 198.96 241.245 202.653 254.835C203.237 259.476 205.469 262.088 209.028 264.408C211.353 265.933 212.15 268.213 211.034 270.984C208.232 304.118 201.245 348.098 163.414 357.724C129.582 334.123 142.892 286.656 156.627 255.909C156.534 255.856 156.427 255.803 156.334 255.75C173.337 236.525 174.253 194.64 143.463 190.795H143.423C128.001 187.427 95.4975 205.791 94.488 219.394C92.7745 232.653 91.4728 261.491 112.487 255.273C113.39 254.742 113.629 253.112 114.519 251.282C86.0134 257.726 99.695 208.562 118.663 203.868C128.108 197.106 140.634 204.041 144.207 214.117C145.92 223.16 144.074 233.051 143.968 242.199C138.708 259.781 131.946 276.58 126.62 293.989C118.809 306.797 116.565 333.951 126.208 349C126.235 348.947 126.248 348.907 126.275 348.854C129.967 355.496 134.603 360.747 138.482 364.459C104.318 360.376 93.4121 320.175 66.0355 304.145C22.4801 292.093 -4.63073 308.984 0.655955 356.212C5.76996 361.118 6.6068 371.076 12.5045 376.658C26.3854 395.657 51.2514 405.708 69.0774 385.753C82.8653 371.619 89.985 405.88 72.1591 398.787C71.8934 399.052 71.6145 399.304 71.3488 399.569C72.4779 402.831 75.6791 403.308 78.5881 404.262C90.357 406.689 89.9319 390.075 88.059 382.637C85.7079 374.974 74.4305 374.974 67.9616 376.273C34.3021 398.641 11.2957 374.881 18.8804 338.857C19.0664 333.115 24.5656 330.742 26.2127 326.035C33.1465 324.073 38.3136 318.372 46.257 319.353C46.257 319.379 46.257 319.406 46.257 319.446C46.2835 319.419 46.3234 319.393 46.3499 319.366C60.5629 326.95 71.9465 338.339 79.1991 352.752C79.6906 353.733 81.444 354.104 82.6129 354.754C82.9715 354.542 83.3169 354.343 83.6756 354.131C83.3169 354.343 82.9715 354.555 82.6129 354.754C81.5901 361.556 90.4234 363.863 92.3096 369.392C93.5449 374.43 97.9682 374.655 101.369 377.533C107.266 382.624 114.386 385.753 120.736 390.168C123.751 391.892 126.66 394.146 130.512 393.735C132.491 394.915 134.351 396.373 136.463 397.182C138.814 398.084 142.228 397.58 143.689 399.105C147.567 402.963 152.469 401.717 156.228 399.171C159.15 403.467 163.361 399.171 166.934 399.927C177.122 401.558 183.658 394.583 192.212 389.837C190.645 410.72 172.194 431.138 149.892 426.166C136.224 423.514 124.627 412.761 110.056 415.426C86.3056 419.139 93.3191 445.723 69.9009 438.537C52.5797 427.757 28.4974 432.544 17.6584 460.202C7.19126 470.398 14.404 486.799 20.4611 497.512C24.632 507.35 34.7272 510.784 44.0652 514.298C54.9308 521.285 90.9547 503.014 75.9049 490.511C76.7418 511.089 46.6687 511.553 35.4976 500.257C26.7972 490.631 18.5085 474.72 29.7992 463.596C32.7746 455.826 38.7254 448.719 47.4657 447.407C62.4225 445.948 77.7911 454.527 92.2033 446.611C104.517 441.812 106.841 423.634 123.166 431.271C144.844 436.641 155.617 445.007 179.713 440.26C169.431 477.093 150.782 502.166 113.284 522.412C92.3627 535.18 65.7699 532.383 45.6327 546.861C15.8519 557.72 7.53662 610.915 18.814 637.154C22.3473 645.746 30.636 647.735 38.0878 652.428C63.7509 666.615 86.1993 681.956 79.2124 714.891C88.9622 704.602 80.74 689.407 76.3964 678.164C65.9824 658.448 42.6174 649.71 35.843 627.634C28.431 610.769 31.6588 590.708 40.9171 575.341C62.3694 551.754 95.989 571.815 119.035 552.377C123.737 551.979 125.331 547.829 128.732 545.536C152.389 535.286 168.913 515.809 187.988 499.368C163.999 557.933 138.84 620.846 151.884 685.934C157.291 714.36 167.519 747.216 201.935 747.203C206.93 751.658 210.835 745.015 216.055 745.081C246.553 739.234 254.337 697.376 252.079 671.707C250.379 646.197 230.8 566.75 265.721 576.999C278.831 577.397 287.014 587.248 294.346 596.662C306.832 617.916 300.788 654.55 286.376 674.253C279.96 683.454 268.378 686.517 264.353 697.919C264.3 705.968 269.546 715.925 271.114 724.053C274.249 733.135 263.078 752.413 253.872 739.977C253.434 739.406 252.464 739.261 251.747 738.916C248.665 742.788 254.258 749.417 258.402 748.979C286.881 748.887 275.059 715.01 275.989 697.906C280.997 692.232 286.655 687.074 291.357 681.174C294.944 676.666 301.36 675.075 303.007 668.419C318.242 645.521 318.933 614.601 306.885 590.032C319.531 595.601 330.782 603.212 345.141 599.884C347.625 599.91 349.803 598.743 349.365 596.834L357.016 595.336C359.168 596.834 362.05 597.006 364.016 594.567C363.83 594.394 363.684 594.222 363.551 594.05C363.737 594.076 381.112 585.829 381.284 585.789C382.019 586.744 384.525 585.896 388.802 583.244C388.696 582.952 388.577 582.66 388.47 582.382C410.175 571.987 424.415 550.653 434.058 529.254H434.098C434.098 529.254 434.071 529.227 434.058 529.214C434.058 529.214 434.058 529.227 434.058 529.24C434.058 529.24 434.058 529.24 434.045 529.24C435.785 525.7 436.741 522.067 438.574 518.58C438.681 518.779 438.8 518.965 438.96 519.124C442.373 510.612 445.933 503.227 449.892 494.767C449.892 494.807 449.892 494.847 449.892 494.887C464.795 468.077 497.073 468.939 500.142 502.259C497.923 524.799 489.436 546.583 484.627 567.612C469.67 594.898 449.892 615.145 449.892 615.145C447.474 617.77 445.389 620.62 443.954 623.962C443.848 623.763 443.542 623.153 443.237 622.543C443.237 622.927 443.25 623.312 443.263 623.696C420.735 636.505 404.636 620.302 382.599 618.115C372.942 620.408 361.864 618.87 356.617 629.623C351.477 636.809 348.05 644.367 347.107 653.224C345.42 663.168 351.743 670.421 355.967 678.562C356.724 685.005 364.627 687.949 364.627 687.949C365.451 691.502 376.502 694.565 379.704 696.421C385.402 699.047 389.427 695.785 394.992 694.79C394.674 694.472 394.342 694.194 394.009 693.955C400.452 692.722 403.959 683.905 407.558 678.867C410.281 673.855 412.247 668.485 413.084 662.837C433.328 653.025 441.895 679.795 416.471 680.272C416.538 680.63 416.617 680.988 416.684 681.346C448.245 691.595 435.546 639.382 410.082 654.908C400.027 662.863 396.64 676.122 386.398 683.626C381.962 682.499 377.166 683.825 373.487 680.033C373.208 679.755 372.717 679.689 372.159 679.689C371.508 679.225 370.884 678.721 370.259 678.177C366.141 673.709 364.322 667.835 362.05 662.227C362.103 658.673 363.246 654.139 362.621 650.347C367.51 635.775 381.603 626.428 396.666 633.389C427.403 647.867 454.156 646.86 476.405 619.48C476.843 619.016 477.281 618.539 477.707 618.075C477.786 618.433 477.879 618.817 477.946 619.295C503.316 588.614 530.68 549.115 522.537 507.642L522.484 507.549ZM378.774 486.573C377.472 487.568 376.077 488.469 374.868 489.411C374.789 489.305 374.709 489.212 374.629 489.119L378.787 486.573H378.774ZM369.011 376.923L367.31 374.311C368.081 375.053 368.599 375.968 369.011 376.923ZM358.663 366.621L358.862 370.651C358.597 369.325 358.477 367.986 358.663 366.621ZM161.13 205.446L159.296 202.41C159.987 203.364 160.585 204.385 161.13 205.446ZM25.5486 622.384C26.1861 622.45 27.2621 622.41 27.5543 622.556C27.2621 622.424 26.1729 622.45 25.5486 622.384ZM269.693 539.304C269.719 539.808 269.786 540.298 269.918 540.802C268.776 538.416 267.74 535.989 266.757 533.536L269.693 539.304ZM165.712 667.464L167.386 660.98C167.771 663.168 167.798 665.263 165.712 667.464ZM251.096 561.314C250.246 562.202 248.732 563.13 247.643 563.011C232.34 567.638 228.475 588.587 228.342 602.774C227.253 632.673 232.898 687.299 212.562 709.932C206.226 711.377 199.079 716.23 193.354 710.476C183.392 701.884 174.426 691.356 175.595 677.355C176.498 671.428 168.462 666.867 172.978 661.06C178.65 655.518 168.023 650.161 171.756 644.075C179.938 638.785 169.604 631.705 175.342 624.89C180.589 619.997 172.912 612.015 180.098 608.21C182.98 602.23 181.293 593.453 185.836 588.03C192.292 583.191 188.865 575.129 193.66 569.269C198.375 564.787 199.943 560.545 196.848 554.724L197.964 552.099C213.053 547.286 203.091 534.703 211.791 530.354C219.775 528.869 217.941 520.344 219.735 514.682C224.53 507.708 231.636 501.45 230.813 492.261C235.356 481.853 239.287 471.087 244.335 460.904C244.641 461.037 244.959 461.156 245.265 461.289C246.102 468.276 246.992 475.277 247.736 482.278C246.474 487.17 243.883 492.699 248.944 496.69C259.159 515.73 260.301 539.238 274.049 556.965C266.664 554.658 257.167 555.44 251.07 561.327L251.096 561.314ZM271.207 544.926C271.791 544.965 272.23 544.965 272.575 544.979L274.7 549.155C273.558 547.776 272.402 546.384 271.207 544.939V544.926ZM336.852 596.953C336.573 596.781 336.308 596.635 336.029 596.529H337.025C336.972 596.688 336.905 596.808 336.852 596.953ZM471.61 452.816C473.031 452.458 474.465 452.366 475.9 452.604C474.439 452.578 473.004 452.657 471.61 452.816ZM387.567 695.772C386.969 695.612 386.372 695.44 385.774 695.281L387.74 694.936C387.66 695.188 387.594 695.467 387.567 695.772ZM401.727 672.595C400.425 673.974 398.911 675.486 397.277 676.944C398.473 675.181 399.974 673.669 401.727 672.595ZM363.007 640.045C364.893 636.77 367.709 634.516 370.977 632.978C367.908 634.807 365.185 637.168 363.007 640.045ZM487.191 606.526C488.453 604.856 489.157 603.848 489.157 603.848C489.157 604.034 489.17 604.233 489.196 604.418C488.532 605.121 487.855 605.824 487.191 606.526Z" fill="#FB00FF" style="mix-blend-mode:exclusion"/>
</svg>
