<svg width="643" height="569" viewBox="0 0 643 569" fill="none" xmlns="http://www.w3.org/2000/svg">
<path fill-rule="evenodd" clip-rule="evenodd" d="M524.235 61.2543C592.715 107.692 634.561 182.121 641.788 263.777C653.368 572.073 347.787 568.999 347.787 568.999C137.358 560.773 26.9924 307.34 107.57 127.577C93.8233 131.715 80.3697 135.767 66.9343 139.812C44.9746 146.425 23.0637 153.024 0 159.96C11.2101 120.581 44.0823 103.478 77.1427 86.2762C85.4157 81.9716 93.7006 77.661 101.661 72.9936C113.654 56.1456 136.439 46.6032 158.975 37.1652C173.879 30.9233 188.675 24.727 200.167 16.4933C220.411 -0.396953 296.437 -2.3535 304.663 23.6007C299.662 25.8338 293.764 27.0657 287.926 28.2851C276.748 30.6195 265.791 32.9078 261.778 42.0881C258.504 43.621 255.229 44.828 252.322 45.8992C246.901 47.8976 242.761 49.4236 242.293 51.7111C240.336 61.414 246.725 64.6084 257.027 66.2854C268.9 69.0103 281.359 71.0044 293.939 73.0179C324.679 77.9382 356.139 82.9736 381.527 99.0676C385.036 111.496 391.666 117.31 397.601 122.515C407.608 131.289 415.639 138.332 403.409 172.418C405.305 170.545 407.316 168.746 409.328 166.947C417.951 159.236 426.574 151.524 426.089 137.959C426.089 137.959 429.403 104.258 436.51 86.6096C439.545 81.0594 441.821 77.7852 441.821 77.7852C439.864 79.5421 438.107 82.6965 436.51 86.6096C430.76 97.2708 422.255 116.517 421.537 138.877C392.588 81.6583 360.684 23.2414 295.559 1.63945C308.919 2.89199 323.32 2.02237 337.868 1.14389C373.408 -1.00217 409.822 -3.20107 434.074 25.3576C437.109 30.4287 447.531 34.7411 453.6 33.7029C480.296 29.1212 499.463 43.1511 518.228 56.8861C520.232 58.3532 522.232 59.817 524.235 61.2543ZM454.045 49.8216C452.584 48.0909 451.11 46.3437 449.767 44.5238L449.807 44.4839C449.108 44.7035 448.409 44.9132 447.71 45.1228C447.011 45.3324 446.313 45.542 445.614 45.7616C446.698 48.5836 447.378 51.6823 448.054 54.7634C449.894 63.1483 451.706 71.4026 461.546 73.5926C465.576 63.4861 459.922 56.7868 454.045 49.8216ZM262.657 96.1128H347.387C343.56 95.6075 339.733 95.0456 335.893 94.482C312.73 91.0821 289.133 87.6184 262.657 96.1128ZM72.8518 116.865L227.838 87.6078C227.619 86.5698 227.399 85.5417 227.179 84.5136C226.96 83.4853 226.74 82.457 226.52 81.4187C219.711 82.211 212.887 82.9422 206.063 83.6734C160.277 88.5796 114.478 93.4871 72.8518 116.865ZM597.227 406.126C608.207 381.849 613.798 358.171 616.752 338.485H616.672C617.91 314.528 603.855 300.592 603.855 300.592C588.362 286.537 582.333 252.357 582.333 252.357C579.579 243.799 579.034 234.529 578.378 223.363C578.063 218.014 577.723 212.229 577.102 205.879C564.205 196.376 545.438 182.56 524.914 167.467C527.59 163.594 531.543 157.884 536.174 151.216C535.575 150.257 533.898 147.622 532.581 145.586C541.365 142.471 549.391 139.636 558.934 136.282C557.195 133.434 554.564 130.764 551.98 128.143C544.425 120.477 537.28 113.228 554.063 103.14C524.929 117.668 518.991 109.352 511.72 99.168C507.759 93.6211 503.403 87.5201 494.688 84.2538C488.818 83.6947 490.455 89.0054 490.455 89.0054C494.887 103.66 501.835 135.523 464.94 99.3871C460.893 118.611 453.852 138.256 446.973 157.447C444.622 164.006 442.291 170.512 440.104 176.93C435.073 190.826 408.999 185.076 402.969 173.217C380.782 169.196 367.367 156.004 354.377 143.228C335.504 124.667 317.525 106.985 274.835 119.591C263.363 122.931 251.272 125.19 239.133 127.458C207.881 133.296 176.312 139.193 154.168 163.754C151.623 166.991 149.163 170.455 146.691 173.936C139.468 184.107 132.141 194.425 122.264 199.69C83.2132 226.403 98.9455 339.084 124.9 374.222C142.728 357.751 140.623 346.86 138.563 336.198C137.107 328.664 135.673 321.244 141.311 312.052C150.565 307.835 151.722 300.74 152.878 293.65C153.298 291.072 153.718 288.496 154.527 286.058C154.661 285.658 153.869 284.956 153.031 284.213C152.613 283.842 152.184 283.462 151.852 283.103C149.377 286.896 147.18 290.211 144.345 294.483C139.115 279.23 142.828 274.798 158.88 272.202C159.093 271.827 159.307 271.449 159.523 271.07C173.655 246.171 192.112 213.652 219.054 202.286C237.077 197.142 250.204 190.708 262.358 184.75C284.266 174.012 303.009 164.825 341.558 167.547C335.613 172.161 332.801 175.351 329.227 179.404C327.976 180.824 326.632 182.349 325.027 184.078C339.897 193.253 357.312 195.163 374.753 197.076C388.129 198.544 401.52 200.012 413.79 204.761C429.762 209.952 444.776 212.787 461.346 212.587C489.13 211.364 504.721 233.72 519.771 255.298C525.354 263.305 530.863 271.204 536.893 277.752C540.243 282.229 542.93 287.251 545.614 292.269C549.587 299.693 553.553 307.108 559.653 312.731C563.207 321.875 565.722 330.979 564.564 338.246C564.564 338.246 572.311 434.516 540.766 458.913C540.766 458.913 504.59 493.412 524.475 493.971C524.475 493.971 560.332 493.732 597.227 406.126ZM312.129 25.3575C325.386 34.3018 338.602 43.246 348.146 49.7146C349.264 36.0986 336.726 22.7222 312.129 25.3575Z" fill="#FFF2F2" style="mix-blend-mode:exclusion"/>
</svg>
