<svg width="1249" height="462" viewBox="0 0 1249 462" fill="none" xmlns="http://www.w3.org/2000/svg">
<path d="M149.056 361.917C151.406 365.46 153.775 369.023 156.535 373.2C153.234 375.121 150.325 376.819 147.415 378.497C147.303 379.411 147.191 380.325 147.079 381.22C150.437 382.022 153.775 382.843 158.624 384.018C158.624 384.876 157.71 388.848 158.923 392.019C159.874 394.518 163.417 396.01 165.021 397.316C169.591 394.555 173.619 392.131 177.648 389.706C178.207 390.061 178.748 390.434 179.308 390.788C177.984 393.94 176.641 397.092 174.645 401.829C177.741 400.524 179.644 399.722 180.856 399.199C183.131 404.049 185.63 409.345 188.335 415.09C191.897 412.124 193.967 410.409 197.809 407.219C199.674 414.586 203.908 421.804 201.968 426.429C200.271 430.495 191.655 431.67 185.574 434.375C183.56 428.518 181.565 422.699 179.569 416.88C178.711 417.067 177.853 417.272 176.976 417.458C177.76 422.214 178.562 426.952 179.215 430.887C169.236 430.887 159.519 430.924 149.802 430.85C148.627 430.85 147.098 430.626 146.333 429.898C144.021 427.698 142.305 423.315 138.929 428.798C136.579 426.653 133.763 424.826 131.991 422.289C130.387 419.976 129.921 416.88 127.049 414.605C127.198 416.768 127.347 418.932 127.459 420.685C124.904 420.928 122.367 421.151 119.831 421.45C116.418 421.86 112.613 421.524 109.741 422.998C107.018 424.397 101.031 420.368 101.18 427.828C101.18 428.761 94.7829 430.738 91.4071 430.645C74.6774 430.216 58.1529 427.81 41.8522 423.968C39.5208 423.427 36.0891 422.494 34.7276 423.613C23.6677 432.752 10.2019 424.285 0 429.507C6.82616 406.249 13.615 383.123 20.3106 360.275C21.4297 362.122 23.2201 365.05 26.1856 369.899C28.2745 358.97 30.009 349.458 31.9673 340.002C32.1725 339.051 33.6832 338.361 34.5784 337.559C36.1824 338.212 37.7863 338.846 39.3903 339.499C38.2712 350.726 37.1522 361.973 35.8093 375.345C39.6887 366.188 42.5795 359.399 44.7803 354.233C47.9509 362.364 51.0656 370.384 54.1989 378.404C55.0009 378.087 55.7842 377.77 56.5862 377.453C55.4485 369.34 54.2922 361.227 53.1545 353.114C53.8819 354.4 54.889 355.613 55.318 356.993C58.8989 368.333 62.3679 379.691 65.8743 391.049C66.8628 390.807 67.8326 390.564 68.8211 390.303C68.6719 388.046 69.0635 385.566 68.2616 383.57C64.289 373.536 60.018 363.595 55.7096 353.692C55.5231 353.281 54.0124 353.449 53.1172 353.337C53.6954 345.392 54.2549 337.466 54.8331 329.52C55.7469 329.558 56.6608 329.614 57.5747 329.651C57.7612 333.064 57.3696 336.645 58.3021 339.834C59.216 342.968 61.51 345.691 63.7854 349.626C66.0235 337.689 62.3679 324.112 55.2434 315.103L55.5791 315.402C51.9609 308.408 55.1501 303.148 59.6636 296.602C58.8057 303.223 58.1715 308.259 57.2763 315.159C63.431 313.723 67.4782 312.791 71.5254 311.84C71.5068 310.758 71.4695 309.695 71.4508 308.613C73.5024 310.124 75.5353 311.653 77.6056 313.201C79.8623 307.569 81.9885 302.328 84.8607 295.129C86.3154 301.544 87.1734 305.386 88.1432 309.639C90.9408 306.3 92.8245 304.044 94.7269 301.787C94.2606 307.233 93.7757 312.66 93.3094 318.088L95.734 316.614C99.7439 321.687 103.772 326.741 107.782 331.814C105.003 321.109 104.5 309.471 94.4844 302.048C95.5662 299.903 96.6293 297.777 98.3451 294.345C100.49 298.933 102.355 302.607 103.922 306.394C105.731 310.758 111.811 311.914 114.832 308.333C119.383 302.962 136.691 300.463 143.629 303.913C141.689 306.468 139.656 309.154 137.791 311.634C133.539 305.61 131.189 310.049 128.988 315.234C127.701 307.755 117.798 306.114 114.795 312.455C113.359 315.458 112.445 318.722 111.177 322.172C113.564 322.955 116.213 323.813 118.861 324.69L118.749 324.503C116.567 328.028 114.366 331.572 113.415 333.101C109.442 335.862 106.869 337.671 104.295 339.461C104.593 340.021 104.892 340.599 105.19 341.158C121.901 339.237 138.631 337.335 155.006 335.451C156.927 338.38 158.4 340.655 159.892 342.93C160.34 342.688 160.788 342.445 161.217 342.184C160.172 336.291 159.128 330.397 158.083 324.503L157.729 324.858C158.811 325.361 160.732 325.678 160.862 326.368C162.802 336.291 167.614 343.21 180.091 342.688L178.916 345.374C174.645 346.94 170.374 348.488 165.115 350.409C169.236 354.606 163.809 363.651 175.167 363.931C174.515 359.436 173.974 355.65 173.414 351.845C177.555 350.975 180.663 356.533 182.74 368.519C184.53 366.635 186.358 364.696 188.204 362.775C188.913 363.129 189.622 363.483 190.312 363.838C189.379 368.855 188.447 373.89 187.514 378.926L187.738 378.758C184.53 377.714 182.907 373.704 177.741 376.166C173.116 378.367 162.858 368.444 161.179 363.483C160.06 360.182 156.479 357.72 154.726 355.725C152.19 358.466 150.493 360.331 148.777 362.178C145.065 354.158 138.687 353.748 130.648 356.116C133.241 362.122 131.058 370.384 140.328 373.238C139.843 368.388 139.414 364.117 139.022 360.294C143.443 361.021 146.24 361.488 149.019 361.935L149.056 361.917ZM119.159 381.463C121.323 381.668 123.505 381.873 126.918 382.19C123.859 369.657 121.118 358.504 118.395 347.332C117.518 347.201 116.641 347.052 115.765 346.922C114.068 351.696 112.37 356.452 110.729 361.301C101.796 364.397 105.414 371.615 105.283 378.217C110.524 373.144 115.149 368.5 110.487 361.021C112.65 361.245 114.795 361.469 114.534 361.45C115.914 368.295 117.033 373.779 118.152 379.28C111.83 374.487 108.678 377.154 106.701 384.801C109.703 386.181 112.557 388.289 115.504 388.401C116.641 388.438 117.947 383.925 119.178 381.481L119.159 381.463ZM74.9199 370.552C75.1996 366.523 75.3675 364.267 75.6099 360.816C78.5754 363.502 80.4405 365.181 80.9254 365.628C83.35 362.308 85.4575 359.399 88.5349 355.184C85.4015 348.805 81.4289 340.711 77.475 332.635C69.4179 336.03 67.7953 355.93 74.9012 370.552H74.9199Z" fill="#2DD9E2" style="mix-blend-mode:exclusion"/>
<path d="M635.299 226.401C634.46 226.755 633.639 227.091 632.8 227.445C631.233 228.228 629.648 229.03 628.062 229.832C629.349 231.865 630.375 233.506 630.039 232.947C623.773 234.439 617.562 235.95 611.333 237.423C610.214 237.684 609.02 238.169 607.938 237.983C592.85 235.465 587.74 237.833 580.223 250.926C577.388 247.439 574.069 244.212 571.83 240.37C567.746 233.339 564.874 225.543 560.342 218.847C558.215 215.714 553.422 214.39 549.841 212.245L549.562 212.748C561.032 213.308 556.779 204.934 557.246 199.226C557.88 198.723 558.532 198.238 559.167 197.734C560.192 198.853 561.685 199.786 562.188 201.092C564.538 207.246 566.273 213.643 568.94 219.649C569.928 221.887 572.819 223.305 574.852 225.095C575.225 224.554 575.579 224.032 575.952 223.491C573.845 218.698 571.737 213.923 569.406 208.626C573.565 205.027 573.621 203.703 568.94 194.098C565.918 194.638 562.897 195.198 559.875 195.757C558.943 194.918 557.992 194.079 557.059 193.24C557.339 192.158 557.6 191.095 557.88 190.013C557.134 184.492 556.388 178.972 555.492 172.425C573.49 169.012 592.477 165.413 612.153 161.683C614.503 171.81 624.09 178.99 619.11 190.927C620.9 190.386 622.243 189.994 622.393 189.957C623.81 195.347 625.227 200.793 626.85 207.004C623.735 207.862 619.464 209.037 617.208 209.671C622.803 214.856 629.051 220.637 635.28 226.419L635.299 226.401ZM584.047 185.033C589.418 196.522 594.416 207.153 599.396 217.784C600.18 217.467 600.963 217.15 601.765 216.833C601.541 215.453 601.541 213.961 601.019 212.711C599.62 209.372 596.487 203.367 596.673 203.255C604.674 198.872 598.762 193.892 597.774 186.824C591.115 195.795 589.288 185.891 584.065 185.033H584.047Z" fill="#2DD9E2" style="mix-blend-mode:exclusion"/>
<path d="M143.275 282.335C143.443 282.279 145.214 282.13 146.278 281.197C148.366 279.332 150.064 277.038 151.91 274.912C153.682 277.467 155.454 280.041 158.083 283.864C163.194 280.936 168.919 277.653 174.403 274.501C175.391 275.807 177.76 278.922 180.986 283.174C170.99 289.086 155.193 282.745 149.84 294.476C144.972 290.261 140.981 286.662 136.728 283.416C136.411 283.174 132.924 286.177 133.073 286.419C134.901 289.627 137.139 292.593 139.601 296.118H102.336L101.926 293.395C107.521 291.977 113.098 290.56 117.444 289.441V272.86C118.264 272.748 119.085 272.636 119.905 272.524C121.118 274.669 122.349 276.814 123.561 278.959C124.4 278.866 125.24 278.772 126.079 278.679C124.848 266.388 123.598 254.098 122.367 241.807C122.796 241.695 123.207 241.564 123.636 241.452C125.724 245.612 127.813 249.789 128.709 251.561C132.812 249.752 136.822 247.999 140.832 246.227C140.179 245.481 139.507 244.735 138.855 243.989C136.989 244.865 135.106 245.723 132.252 247.066C130.443 237.069 120.707 228.49 129.94 217.785C131.916 218.68 134.136 219.165 135.591 220.47C138.127 222.764 141.503 225.264 142.193 228.21C144.468 237.983 146.632 247.98 146.986 257.958C147.266 265.661 144.748 273.457 143.293 282.353L143.275 282.335Z" fill="#2DD9E2" style="mix-blend-mode:exclusion"/>
<path d="M407.835 227.744C413.318 222.111 419.305 223.006 422.513 230.578C424.434 235.092 424.994 240.184 426.225 245.275C427.978 246.805 430.458 249.621 433.517 251.449C435.755 252.791 439.989 254.209 441.145 253.164C443.029 251.467 443.924 247.756 443.831 244.94C443.663 240.314 442.88 235.558 441.388 231.194C439.578 225.897 436.781 220.955 435.904 214.837C438.758 218.903 442.898 222.633 444.129 227.147C445.621 232.593 446.498 235.987 453.883 233.898C450.638 229.254 448.326 225.953 446.405 223.193C449.351 219.295 452.149 215.304 455.301 211.611C456.476 210.231 458.472 209.522 460.187 208.683C460.355 208.608 461.754 210.324 461.624 210.529C460.56 212.04 458.901 213.196 458.117 214.8C456.345 218.511 453.119 222.82 453.846 226.158C455.04 231.567 458.919 236.379 463.209 240.78C461.139 233.861 459.068 226.96 457.203 220.787C461.698 217.952 465.111 215.788 470.389 212.45C472.236 221.365 474.064 230.168 475.891 238.99C476.619 238.99 477.346 238.971 478.073 238.953L479.64 233.283C480.535 233.227 481.431 233.171 482.307 233.115C482.307 235.745 483.24 238.915 482.065 240.855C480.591 243.298 477.421 244.716 474.94 246.599C474.642 245.089 474.213 242.963 473.765 240.78C472.366 240.892 471.415 240.743 471.266 241.023C469.382 244.622 467.275 247.14 462.575 247.905C460.877 248.185 459.852 253.799 458.901 257.081C457.949 260.364 457.464 263.777 456.774 267.134C454.107 266.164 451.44 265.213 448.773 264.243C441.145 261.427 436.072 265.623 431.298 270.622C431.092 269.409 431.223 268.01 430.645 267.003C423.166 253.78 415.575 240.631 408.021 227.445L407.798 227.744H407.835Z" fill="#2DD9E2" style="mix-blend-mode:exclusion"/>
<path d="M559.167 197.752C558.533 198.256 557.88 198.741 557.246 199.244C554.243 199.431 551.24 199.599 548.499 199.767C548.927 204.97 549.245 208.868 549.562 212.766L549.841 212.263C548.312 212.598 546.522 213.624 545.328 213.139C539.117 210.64 533.224 207.358 526.938 205.119C518.117 201.967 512.503 193.743 514.946 184.828C515.58 182.496 519.366 180.183 522.126 179.456C530.706 177.199 539.509 175.689 546.149 174.327C550.606 180.146 554.355 185.051 558.122 189.956C557.768 191.038 557.432 192.139 557.078 193.22C558.01 194.06 558.962 194.899 559.894 195.738C559.652 196.41 559.409 197.062 559.185 197.734L559.167 197.752Z" fill="#2DD9E2" style="mix-blend-mode:exclusion"/>
<path d="M707.608 247.57C709.734 250.778 711.841 253.986 714.21 257.548C710.181 259.544 706.041 260.793 703.075 263.386C701.173 265.046 701.024 268.683 700.073 271.424C699.233 271.145 698.394 270.865 697.574 270.566C698.226 267.359 698.879 264.132 699.532 260.924C694.521 259.954 691.45 266.594 690.318 280.843C690.113 277.84 689.927 274.837 689.684 271.201C686.98 270.716 684.126 270.212 680.303 269.541C681.702 263.927 682.97 258.742 684.332 253.557C684.462 253.035 685.059 252.196 685.413 252.214C700.371 252.848 693.806 240.446 696.678 233.769C697.387 232.127 698.618 230.71 699.7 229.013C701.434 238.954 691.344 250.032 704.605 258.089C703.486 255.068 702.367 252.028 701.024 248.372C703.337 248.186 705.612 247.98 707.906 247.794L707.626 247.551L707.608 247.57Z" fill="#2DD9E2" style="mix-blend-mode:exclusion"/>
<path d="M732.618 230.747C728.869 231.661 726.407 232.257 723.945 232.854C723.834 231.903 723.722 230.97 723.628 230.019C730.361 229.255 737.076 228.303 743.827 228.08C744.293 228.08 745.73 233.395 745.375 236.062C744.331 243.97 742.633 251.785 741.029 260.55C737.71 260.737 734.222 260.942 729.522 261.203C730.585 250.722 731.555 241.247 732.637 230.728L732.618 230.747Z" fill="#2DD9E2" style="mix-blend-mode:exclusion"/>
<path d="M39.409 339.498C37.805 338.845 36.2011 338.211 34.5971 337.558C34.336 335.787 33.907 333.996 33.8324 332.206C33.0118 313.312 36.313 310.757 55.5605 315.383L55.2248 315.084C55.2248 318.702 55.2248 322.321 55.2248 327.953C51.6998 325.286 49.6855 323.775 48.5478 322.918C45.5264 328.401 42.4677 333.94 39.409 339.479V339.498Z" fill="#2DD9E2" style="mix-blend-mode:exclusion"/>
<path d="M765.649 185.965C762.515 189.379 759.401 192.792 756.566 195.869V187.663C749.59 186.059 742.783 184.492 735.248 182.758C733.756 187.924 732.376 192.754 730.977 197.585L729.242 197.436C728.925 191.467 728.273 185.499 728.534 179.55C728.59 178.188 732.04 175.633 733.532 175.894C742 177.367 750.43 179.307 758.711 181.601C761.322 182.329 763.504 184.623 765.891 186.208L765.667 185.965H765.649Z" fill="#2DD9E2" style="mix-blend-mode:exclusion"/>
<path d="M215.378 429.432C225.021 428.462 233.134 429.843 234.141 442.749H216.796C216.423 438.105 216.087 433.61 215.714 429.115L215.378 429.432Z" fill="#2DD9E2" style="mix-blend-mode:exclusion"/>
<path d="M118.861 324.671C130.853 322.34 142.808 319.916 154.857 318.013C155.435 317.92 156.759 322.471 157.729 324.858L158.083 324.504C149.467 320.568 141.354 322.415 138.705 328.402C131.842 319.692 130.145 326.052 128.074 332.188C127.795 329.987 127.496 327.786 127.254 325.902C123.953 325.361 121.341 324.914 118.73 324.485L118.842 324.671H118.861Z" fill="#2DD9E2" style="mix-blend-mode:exclusion"/>
<path d="M779.208 307.793C775.645 308.445 771.654 308.278 768.651 309.919C763.354 312.81 759.214 312.66 755.018 307.494H768.633C770.013 302.179 771.356 296.957 772.866 291.175C783.199 293.469 776.149 302.776 779.04 307.998L779.226 307.811L779.208 307.793Z" fill="#2DD9E2" style="mix-blend-mode:exclusion"/>
<path d="M706.545 184.231C708.764 183.616 710.983 183 713.277 182.366C712.121 180.818 711.114 179.456 709.715 177.573H726.575L727.676 179.009C724.487 180.203 721.297 181.396 719.097 182.217C720.645 184.436 722.323 186.842 723.983 189.248C720.682 189.491 717.306 190.237 714.079 189.826C711.319 189.472 708.727 187.793 706.041 186.693C706.209 185.872 706.377 185.052 706.545 184.212V184.231Z" fill="#2DD9E2" style="mix-blend-mode:exclusion"/>
<path d="M708.764 119.905C712.587 118.283 716.392 116.66 718.145 115.914C724.542 119.831 730.268 123.318 735.994 126.806C735.677 127.533 735.36 128.242 735.061 128.97C726.165 126.713 716.28 127.757 709.062 119.812L708.783 119.887L708.764 119.905Z" fill="#2DD9E2" style="mix-blend-mode:exclusion"/>
<path d="M558.887 298.523C557.152 297.926 555.418 297.33 553.683 296.733C552.34 290.485 550.998 284.218 549.655 277.97C550.942 277.28 552.247 276.59 553.534 275.9C558.719 276.105 558.57 276.049 557.152 280.619C556.798 281.719 557.992 283.211 558.085 284.572C558.439 289.216 558.644 293.879 558.906 298.542L558.887 298.523Z" fill="#2DD9E2" style="mix-blend-mode:exclusion"/>
<path d="M732.394 165.673C733.084 159.724 733.775 153.774 734.651 146.221C739.65 149.037 744.051 151.518 748.453 154.017C748.042 154.968 747.632 155.919 747.222 156.852C744.294 156.721 741.365 156.572 738.456 156.441C737.355 159.798 736.292 163.044 735.248 166.308C734.297 166.102 733.346 165.897 732.376 165.692L732.394 165.673Z" fill="#2DD9E2" style="mix-blend-mode:exclusion"/>
<path d="M730.063 207.396C728.403 213.942 728.011 218.68 725.978 222.54C724.039 226.233 720.365 229.031 716.541 233.209C715.478 229.348 714.676 226.383 714.415 225.469C719.693 219.37 724.001 214.39 730.063 207.377V207.396Z" fill="#2DD9E2" style="mix-blend-mode:exclusion"/>
<path d="M732.6 388.065C728.347 390.471 724.076 392.877 717.511 396.57C718.052 389.613 718.332 385.976 718.63 382.339C719.507 382.377 720.402 382.414 721.279 382.451C721.652 384.596 722.025 386.741 722.398 388.867C723.069 389.091 723.741 389.315 724.412 389.539C725.848 386.088 727.303 382.638 729.149 378.162C730.567 382.06 731.704 385.193 732.861 388.308L732.6 388.046V388.065Z" fill="#2DD9E2" style="mix-blend-mode:exclusion"/>
<path d="M1173.22 294.401C1167.59 291.977 1167.89 292.126 1170.05 287.93C1171.02 286.046 1170.76 283.398 1170.67 281.122C1170.46 275.191 1170.03 269.26 1170.89 263.273C1167.46 273.96 1179.47 283.808 1172.91 294.663L1173.22 294.401Z" fill="#2DD9E2" style="mix-blend-mode:exclusion"/>
<path d="M732.861 388.307C732.488 386.871 732.133 385.435 732.45 386.703C737.337 383.048 740.936 380.343 745.543 376.893V389.893C741.272 389.277 736.926 388.662 732.599 388.065L732.861 388.326V388.307Z" fill="#2DD9E2" style="mix-blend-mode:exclusion"/>
<path d="M779.338 186.189C775.981 192.586 772.624 199.002 769.565 204.84C767.607 199.562 774.899 190.852 765.649 185.965C765.649 185.965 765.872 186.208 765.872 186.189C770.405 181.172 774.788 185.275 779.208 186.394L779.32 186.189H779.338Z" fill="#2DD9E2" style="mix-blend-mode:exclusion"/>
<path d="M709.025 119.831C706.563 118.19 704.12 116.549 701.658 114.889L701.938 115.113C704.083 108.697 706.246 102.263 708.391 95.8467C708.988 95.9959 709.603 96.1451 710.2 96.2943C709.174 101.759 708.167 107.205 707.03 113.304C709.286 113.658 711.412 113.994 714.863 114.553C712.289 116.81 710.555 118.358 708.783 119.887C708.745 119.887 709.025 119.831 709.025 119.831Z" fill="#2DD9E2" style="mix-blend-mode:exclusion"/>
<path d="M701.658 114.888C702.553 116.622 703.467 118.357 705.276 121.807C701.341 119.644 699.215 118.469 695.746 116.548V127.981C695.168 128.055 694.571 128.13 693.993 128.204C692.594 123.71 691.176 119.215 689.405 113.545C693.937 114.123 697.965 114.645 701.975 115.13C701.956 115.112 701.677 114.869 701.677 114.869L701.658 114.888Z" fill="#2DD9E2" style="mix-blend-mode:exclusion"/>
<path d="M707.887 247.812C708.894 243.075 709.883 238.337 710.89 233.6C711.767 233.413 712.662 233.246 713.538 233.059C714.508 236.696 716.541 240.519 715.982 243.914C715.721 245.555 710.592 246.394 707.645 247.588L707.906 247.812H707.887Z" fill="#2DD9E2" style="mix-blend-mode:exclusion"/>
<path d="M548.368 244.959V222.802C548.965 222.708 549.562 222.634 550.158 222.541C551.221 229.255 552.508 235.932 553.068 242.683C553.124 243.448 549.226 244.567 548.368 244.959Z" fill="#2DD9E2" style="mix-blend-mode:exclusion"/>
<path d="M557.078 193.239C557.432 192.158 557.768 191.057 558.122 189.976L557.898 190.032C557.619 191.095 557.357 192.176 557.078 193.239Z" fill="#2DD9E2" style="mix-blend-mode:exclusion"/>
<path d="M1017.58 101.608C1019.67 116.324 1013.39 123.318 1001.67 119.774C1005.53 112.65 1000.67 98.0088 1017.58 101.608Z" fill="#2DD9E2" style="mix-blend-mode:exclusion"/>
<path fill-rule="evenodd" clip-rule="evenodd" d="M779.062 308.042C779.042 308.027 779.022 308.012 779.002 307.998L778.947 308.147L779.062 308.042ZM779.093 308.064C779.083 308.057 779.072 308.049 779.062 308.042L779.152 307.96C779.132 307.995 779.112 308.03 779.093 308.064ZM799.463 301.692C798.588 301.058 797.721 300.411 796.853 299.764C794.5 298.01 792.147 296.255 789.652 294.756C788.51 294.068 787.134 293.777 785.417 293.413C784.526 293.224 783.543 293.016 782.453 292.723C777.343 283.006 775.533 282.278 761.974 285.225C758.554 273.705 750.964 274.106 743.133 274.519C738.451 274.766 733.684 275.018 729.671 272.729C731.257 278.804 735.021 278.391 738.592 277.999C741.282 277.704 743.861 277.421 745.319 279.928C736.87 282.819 727.471 281.644 720.831 276.497C719.637 275.564 718.406 272.822 718.929 271.946L719.063 271.72C720.626 269.094 722.871 265.321 725.027 265.194C737.301 264.479 749.144 267.442 760.941 270.393C762.374 270.751 763.806 271.109 765.238 271.461C765.602 271.555 765.833 272.152 766.169 273.019C766.366 273.529 766.599 274.132 766.917 274.781C767.342 273.474 767.694 272.396 768.016 271.415C768.258 270.674 768.483 269.987 768.707 269.297C748.341 263.777 743.174 260.028 745.86 249.285C746.424 247.034 746.68 244.633 746.938 242.214C747.771 234.392 748.625 226.38 759.979 222.633C767.637 220.109 772.626 223.716 777.55 227.275C781.321 230.001 785.052 232.698 789.913 232.593C788.384 226.83 773.258 219.444 764.026 220.097C756.858 220.598 749.718 221.545 743.027 222.433C740.247 222.802 737.544 223.161 734.949 223.473C733.91 219.248 733.008 215.592 732.102 211.919C731.511 209.527 730.919 207.128 730.287 204.561C741.775 206.445 753.448 208.363 765.224 210.298C779.677 212.672 794.285 215.073 808.9 217.467C809.608 216.497 810.317 215.527 811.007 214.558C796.18 214.483 791.256 207.321 794.352 195.944C792.747 192.906 789.661 192.795 786.702 192.688C782.966 192.553 779.434 192.426 779.34 186.428C784.402 187.046 789.455 187.654 794.553 188.268C796.178 188.464 797.807 188.66 799.444 188.857C799.071 185.481 798.735 182.516 798.362 179.289H792.916V168.416C789.263 167.291 785.657 166.184 781.992 165.059C778.246 163.909 774.439 162.741 770.46 161.515C770.218 162.121 769.849 163.067 769.326 164.41C769.125 164.927 768.9 165.503 768.651 166.14C764.809 164.182 761.06 162.28 757.013 160.228C768.502 150.735 787.638 155.081 808.937 172.202C808.321 170.711 807.874 169.633 807.484 168.692C807.142 167.867 806.843 167.147 806.512 166.346L807.11 166.419C808.742 166.618 810.388 166.82 812.033 167.036C812.107 166.803 812.177 166.565 812.247 166.327C812.317 166.089 812.387 165.851 812.462 165.618C811.704 165.301 810.946 164.986 810.187 164.671C808.985 164.171 807.78 163.671 806.568 163.156C807.463 150.642 807.389 150.548 795.583 151.835C797.286 149.725 798.493 148.239 799.697 146.758L799.723 146.725L798.81 145.028C796.292 146.091 793.774 147.154 791.163 148.254C790.361 146.539 789.092 143.797 787.47 140.272C774.467 150.991 761.933 147.073 748.733 142.947C744.685 141.681 740.574 140.396 736.367 139.507C736.907 138.763 737.397 138.083 737.852 137.453C739.095 135.731 740.075 134.373 741.086 133.035C741.476 132.516 742.011 131.968 742.543 131.421C743.636 130.299 744.718 129.188 744.517 128.373C743.419 123.805 741.947 119.336 740.401 114.643C739.82 112.878 739.228 111.082 738.642 109.237L739.908 109.388C742.226 109.664 744.371 109.92 746.569 110.188C746.992 113.449 747.415 116.679 747.859 120.076C748.023 121.324 748.189 122.594 748.359 123.897C758.617 116.753 759.718 111.811 754.402 101.646C753.516 99.9619 753.085 98.0453 752.654 96.1301C752.451 95.2249 752.248 94.32 751.996 93.44C752.876 93.44 753.766 93.3957 754.656 93.3513C756.709 93.2491 758.762 93.1468 760.687 93.5892C766.324 94.8838 771.903 96.4124 777.486 97.9424C779.625 98.5284 781.764 99.1146 783.908 99.688C783.329 106.514 782.77 112.967 782.21 119.402C782.695 119.486 783.185 119.574 783.674 119.663C784.164 119.751 784.654 119.84 785.138 119.924C785.587 118.019 786.042 116.119 786.584 113.851C787.055 111.878 787.594 109.626 788.253 106.85C789.166 107.615 790.171 108.295 791.127 108.941C793.083 110.262 794.834 111.446 795.173 112.949C795.926 116.314 796.231 119.772 796.535 123.23C796.827 126.537 797.119 129.845 797.802 133.073C798.362 135.721 801.048 138.612 803.528 139.918C804.807 140.594 806.613 140.273 808.887 139.869C810.062 139.66 811.362 139.429 812.779 139.302C815.632 143.797 821.116 147.21 829.546 144.263C831.472 143.581 834.272 144.816 836.604 145.845C836.824 145.942 837.039 146.037 837.249 146.128C844.784 149.411 852.113 163.511 850.192 170.449C849.053 169.96 847.905 169.467 846.627 168.919C844.786 168.13 842.675 167.225 839.934 166.047C840.481 167.271 840.919 168.249 841.302 169.103C841.953 170.553 842.443 171.647 843.03 172.985C841.147 172.724 839.561 172.5 837.006 172.127C838.554 177.35 839.99 182.143 841.818 188.242C833.505 186.884 830.417 180.995 827.365 175.174C825.973 172.519 824.589 169.879 822.72 167.688C823.403 169.331 822.458 171.454 821.514 173.578C819.701 177.651 817.889 181.723 827.588 182.385C828.802 182.462 829.841 185.008 830.878 187.552C831.355 188.72 831.832 189.888 832.325 190.815C831.861 191.508 831.305 192.19 830.749 192.871C829.493 194.409 828.24 195.944 828.072 197.586C827.837 199.852 828.448 202.202 829.058 204.551C829.317 205.545 829.576 206.539 829.77 207.526C830.511 206.46 831.253 205.397 832.063 204.236C833.066 202.799 834.173 201.212 835.514 199.283C835.514 201.658 835.613 203.986 835.71 206.267C835.919 211.203 836.119 215.923 835.29 220.451C833.351 231.082 834.507 239.923 843.385 247.178C844.391 247.998 844.901 249.423 845.453 250.966C845.955 252.369 846.492 253.87 847.469 255.104C847.813 247.455 848.16 239.805 848.506 232.184C848.93 222.841 849.352 213.541 849.763 204.337C852.517 205.566 855.315 206.819 858.202 208.111C861.494 209.586 864.901 211.111 868.489 212.711C868.629 211.304 868.816 209.902 869.001 208.508C869.454 205.1 869.902 201.734 869.664 198.425C869.514 196.28 867.034 193.557 864.926 192.587C864.184 192.241 862.794 193.289 861.098 194.568C860.237 195.217 859.297 195.926 858.324 196.541V183.579C857.399 182.812 856.483 182.053 855.573 181.3C854.114 180.092 852.672 178.898 851.237 177.704L853.027 174.309C854.47 175.005 856.036 175.594 857.603 176.183C861.08 177.49 864.558 178.798 866.679 181.266C873.431 189.128 882.379 192.85 891.271 196.549C893.433 197.448 895.591 198.346 897.714 199.301C899.993 200.334 903.198 199.301 906.652 198.188C908.315 197.652 910.036 197.098 911.74 196.746C912.344 197.758 912.915 198.951 913.514 200.204C914.948 203.201 916.545 206.54 919.162 208.552C923.371 211.807 928.455 213.967 933.5 216.111C934.872 216.694 936.241 217.275 937.589 217.877C947.605 222.335 957.676 226.699 967.841 230.821C971.611 232.356 975.481 233.633 979.82 235.064C981.964 235.771 984.223 236.516 986.641 237.349L987.036 233.142C988.349 219.148 989.62 205.616 990.874 192.084C991.154 192.093 991.429 192.107 991.704 192.121C991.979 192.135 992.254 192.149 992.534 192.158V206.631C996.209 206.05 999.861 205.468 1003.5 204.888C1007.92 204.185 1012.32 203.484 1016.72 202.789V201.726H1006.84C1007.55 200.06 1008.17 198.61 1008.75 197.262C1009.26 196.046 1009.75 194.913 1010.23 193.781C1011.6 194.974 1012.94 196.149 1014.93 197.903C1015.17 197.287 1015.35 196.657 1015.53 196.04C1015.9 194.768 1016.26 193.547 1016.99 192.606C1021.31 187.029 1021.57 186.097 1020.77 179.084C1020.63 177.865 1021.48 176.424 1022.19 175.199C1022.26 175.094 1022.32 174.99 1022.38 174.888C1022.86 174.062 1023.52 173.329 1024.35 172.396C1024.76 171.937 1025.22 171.43 1025.71 170.84C1024.84 170.556 1023.99 170.279 1023.15 170.008C1020.32 169.089 1017.7 168.236 1015.06 167.371C1014.85 166.791 1014.64 166.186 1014.42 165.566C1013.7 163.514 1012.92 161.289 1011.88 159.184C1011.71 158.848 1008.05 159.482 1007.94 160.042C1007.61 161.713 1007.64 163.45 1007.69 165.777C1007.71 166.722 1007.73 167.764 1007.73 168.938L1005 168.75C1001.12 168.484 996.962 168.198 992.945 167.912C992.963 168.192 993.075 169.74 993.318 173.116C991.819 171.297 990.411 169.651 989.087 168.103C986.326 164.875 983.934 162.079 981.866 159.053C978.416 154.017 981.418 150.287 986.137 149.262C992.851 147.807 993.597 144.058 993.989 138.015C995.63 112.855 997.999 87.7515 1001.32 62.629V79.5079C1002.35 80.1364 1003.28 80.7533 1004.16 81.334C1006.02 82.5629 1007.63 83.6299 1009.39 84.3012C1011.33 85.0472 1014.17 85.5508 1015.77 84.6555C1018.65 83.0702 1023.33 78.7619 1023.05 78.3516C1019.02 72.1869 1022.47 69.101 1025.89 66.0424C1027.74 64.3817 1029.59 62.7291 1030.23 60.5961C1030.78 58.776 1032.27 57.2289 1033.8 55.6462C1034.5 54.926 1035.2 54.1984 1035.82 53.4343C1033.7 52.1912 1031.65 50.7333 1029.62 49.2945C1025.07 46.0703 1020.65 42.942 1016 42.5422C1011.49 42.1494 1006.75 44.4258 1001.44 46.9786C998.935 48.1829 996.302 49.4487 993.504 50.5247C993.981 49.5522 994.371 48.4939 994.754 47.4534C995.568 45.2413 996.352 43.1101 997.887 42.0573C1011.91 32.4147 1026.77 35.7092 1042.19 39.127L1042.37 39.1665C1038.73 37.0589 1035.1 34.9514 1033.21 33.8697C1033.83 28.9702 1034.43 24.1582 1035.03 19.3963C1035.84 12.9376 1036.64 6.57139 1037.45 0.205158C1037.49 0.192044 1037.54 0.17893 1037.59 0.165918C1037.82 0.104904 1038.04 0.0461169 1038.27 0C1038.35 2.67369 1038.58 5.37377 1038.8 8.07375C1039.32 14.4518 1039.84 20.8293 1038.62 26.857C1037.61 31.93 1039.36 33.2267 1041.87 35.081C1042.23 35.34 1042.59 35.61 1042.97 35.9026C1051.51 42.5422 1051.41 47.1863 1044.83 56.0827C1042.46 59.3092 1041.79 64.4009 1041.75 68.6346C1041.59 92.2464 1041.51 115.877 1042.26 139.47C1042.39 143.629 1045.78 148.478 1049.06 151.5C1052.74 154.894 1056.32 158.624 1051.77 161.907C1040.41 170.068 1040.66 181.126 1040.91 192.198C1040.97 194.688 1041.03 197.179 1040.95 199.637C1040.82 203.79 1041.1 207.961 1041.38 212.126C1041.5 214.02 1041.63 215.913 1041.72 217.803C1047.45 217.099 1053.23 216.38 1061 215.413L1063.07 215.154C1061.65 217.041 1060.64 218.378 1059.82 219.474C1058.93 220.653 1058.25 221.554 1057.49 222.559C1063.63 225.914 1069.75 229.252 1076.11 232.726C1079.23 234.427 1082.41 236.161 1085.68 237.946C1086.08 236.163 1086.5 234.299 1086.97 232.203C1087.46 230.065 1087.99 227.687 1088.62 224.909C1092.65 234.029 1097.78 237.05 1106.94 233.88C1110.11 232.778 1113.92 233.576 1117.75 234.378C1119.63 234.77 1121.51 235.163 1123.31 235.335C1128.15 235.792 1132.99 236.185 1137.92 236.585C1140.02 236.756 1142.14 236.928 1144.28 237.106V246.04C1150.02 246.466 1155.6 246.871 1161.78 247.321C1165.9 247.62 1170.29 247.939 1175.18 248.297C1167.98 257.119 1162.67 263.628 1157.18 270.342C1156.23 268.662 1155.39 267.176 1154.85 266.226C1154.48 265.563 1154.25 265.161 1154.24 265.138C1137.88 261.688 1137.38 250.274 1136.89 238.113L1134.92 241.243C1131.58 246.563 1128.59 251.315 1124.81 257.342V295.52C1136.18 287.482 1139 277.429 1133.22 267.712C1134.39 267.584 1135.48 267.465 1136.64 267.338C1138.01 267.188 1139.46 267.028 1141.24 266.836C1141.62 270.925 1142.01 274.988 1142.4 279.032C1143.59 291.566 1144.77 303.911 1145.84 316.279C1145.87 316.653 1145.9 317.028 1145.92 317.398C1146.17 320.988 1146.38 324.159 1151.94 322.993C1152.29 322.916 1152.88 324.044 1153.48 325.168C1153.68 325.561 1153.89 325.954 1154.09 326.294C1161.52 324.495 1162.57 320.547 1157.03 314.451C1163.51 311.336 1166.17 312.231 1165.17 319.337C1164.46 324.352 1165.5 327.954 1171.73 325.531L1173.09 295.382C1174.91 299.494 1176.74 303.618 1178.85 308.371C1177.38 308.632 1176.04 308.874 1174.7 309.135C1174.71 309.424 1174.73 309.714 1174.74 310.003C1174.76 310.292 1174.77 310.581 1174.79 310.87C1176.68 311.017 1178.59 311.173 1180.78 311.353C1181.65 311.424 1182.56 311.499 1183.54 311.579C1183.2 312.805 1182.73 314.524 1182.1 316.805L1181.54 318.834C1180.86 318.255 1180.26 317.738 1179.71 317.266C1178.25 316.018 1177.15 315.081 1176.06 314.134C1175.87 314.227 1175.68 314.325 1175.49 314.423C1175.26 314.539 1175.03 314.656 1174.81 314.768C1176.24 318.138 1177.68 321.508 1179.43 325.592C1180.28 327.566 1181.19 329.706 1182.21 332.094C1185.92 324.709 1188.72 319.151 1191.07 314.488C1191.24 314.898 1192.19 317.248 1193.12 319.617C1193.44 319.533 1193.75 319.444 1194.07 319.356C1194.38 319.267 1194.69 319.179 1195.01 319.095C1194.62 317.713 1194.31 316.291 1194 314.869C1193.32 311.743 1192.64 308.62 1191.16 305.927C1187.6 299.437 1190.59 298.672 1196.91 298.504C1197.36 302.453 1197.54 306.486 1197.73 310.496C1198.14 319.461 1198.55 328.316 1201.89 335.88C1203.43 339.365 1204.55 343.141 1205.68 346.953C1208.87 357.665 1212.14 368.655 1224.9 374.226C1228.93 375.978 1231.2 382.614 1233.17 388.366C1233.53 389.413 1233.88 390.431 1234.23 391.385C1235.24 394.144 1235.45 397.17 1235.67 400.214C1235.81 402.191 1235.96 404.176 1236.32 406.1C1236.75 408.394 1238 412.236 1239.23 412.386C1246.1 413.218 1246.84 417.532 1247.65 422.298C1247.97 424.151 1248.3 426.072 1249 427.884C1245.7 428.595 1242.61 429.255 1239.49 429.923C1237.28 430.395 1235.06 430.871 1232.72 431.372C1233.86 425.963 1234.81 421.45 1235.76 416.936C1235.44 416.742 1235.12 416.553 1234.8 416.363C1234.5 416.189 1234.21 416.015 1233.91 415.836C1233.29 416.778 1232.68 417.719 1232.04 418.687C1231.29 419.847 1230.5 421.045 1229.66 422.326C1218.02 411.509 1208.66 418.746 1198.83 427.157C1197.23 428.535 1194.24 428.332 1191.3 428.132C1190.1 428.05 1188.91 427.969 1187.83 427.996C1187.25 428.014 1186.49 427.795 1185.82 427.605C1185.09 427.398 1184.48 427.224 1184.36 427.418C1180.95 432.818 1176.29 432.386 1171.6 431.951C1169.66 431.771 1167.72 431.591 1165.86 431.82C1159.41 432.608 1152.99 433.658 1146.58 434.708C1139.62 435.845 1132.67 436.983 1125.68 437.788C1112.03 439.355 1098.12 437.918 1085.71 432.547C1075.63 428.179 1066.23 429.389 1056.53 430.636C1054.39 430.912 1052.23 431.19 1050.05 431.409C1042.49 432.162 1034.84 431.92 1027.19 431.678C1022.89 431.542 1018.59 431.406 1014.3 431.447C1011.84 431.465 1009.02 432.342 1007.01 433.722C1006.16 434.304 1005.35 434.927 1004.55 435.54C1002.03 437.463 999.646 439.288 996.917 439.429C995.962 439.341 994.969 439.148 993.975 438.955C991.829 438.537 989.681 438.12 987.909 438.758C986.229 439.356 984.563 440.008 982.899 440.658C976.474 443.172 970.068 445.677 962.898 445.099C961.895 445.019 960.894 444.919 959.891 444.819C955.991 444.431 952.061 444.04 947.847 444.782C949.097 445.213 950.342 445.649 951.684 446.119C953.125 446.623 954.677 447.166 956.464 447.785C950.877 451.152 947.009 448.474 943.189 445.828C940.556 444.005 937.945 442.197 934.81 442.395C936.027 443.126 937.138 443.801 938.201 444.445C939.142 445.016 940.044 445.563 940.946 446.106L939.883 449.258C937.634 448.494 935.379 447.736 932.992 446.934C931.36 446.385 929.667 445.817 927.872 445.211C928.712 444.534 929.36 444.009 929.923 443.553C930.523 443.068 931.027 442.66 931.565 442.227C930.531 441.807 929.497 441.258 928.477 440.717C926.279 439.551 924.151 438.421 922.24 438.702C918.391 439.268 914.578 438.496 910.745 437.721C904.975 436.554 899.159 435.377 893.107 438.739C891.666 439.543 888.49 437.215 885.313 434.888C883.844 433.812 882.375 432.736 881.078 431.969L881.693 429.227C882.513 428.905 883.342 428.599 884.172 428.294C885.984 427.626 887.799 426.957 889.526 426.113C889.865 425.948 890.234 425.78 890.615 425.606C892.478 424.755 894.629 423.773 894.954 422.457C897.043 413.896 902.116 412.572 909.576 415.146C910.069 415.319 910.847 414.674 911.489 414.142C911.746 413.929 911.982 413.734 912.168 413.617C912.683 415.223 913.202 416.855 913.726 418.501C914.302 420.312 914.883 422.14 915.47 423.968C915.808 423.939 916.146 423.915 916.487 423.891C916.804 423.868 917.123 423.845 917.447 423.819C918.305 420.536 919.163 417.253 919.759 414.997C920.654 415.137 921.499 415.317 922.299 415.487C924.166 415.885 925.789 416.231 927.238 415.892C927.943 415.724 928.165 412.93 928.324 410.917C928.342 410.693 928.359 410.478 928.376 410.278C928.642 406.999 928.814 403.711 928.992 400.29C929.063 398.925 929.135 397.538 929.215 396.122C933.708 397.232 938.293 398.359 942.879 399.487C943.603 397.861 944.333 396.234 945.068 394.595C945.68 393.231 946.295 391.858 946.915 390.471C943.781 389.221 941.096 388.158 937.683 386.816C945.615 386.045 952.473 389.427 958.254 396.961C959.448 392.355 960.362 388.867 960.977 386.517C962.768 387.748 965.118 389.371 969.706 392.541V365.274L972.203 365.996C976.118 367.129 979.022 367.97 981.474 368.668C980.355 372.734 979.404 376.203 978.453 379.691L980.672 380.306L982.631 375.718C982.844 375.746 983.052 375.774 983.261 375.802C983.472 375.83 983.683 375.858 983.899 375.886C983.649 378.626 983.405 381.372 983.153 384.212C982.973 386.245 982.788 388.327 982.594 390.49H991.807C991.241 387.009 991.736 383.392 992.214 379.903C993.136 373.164 993.993 366.9 987.014 363.017C985.708 353.17 984.608 344.814 983.545 336.664C986.865 337.783 990.688 339.07 995.201 340.58C993.43 342.054 991.583 343.583 988.86 345.821C992.213 346.57 995.038 347.21 997.555 347.781C998.174 347.921 998.775 348.057 999.36 348.19C998.739 356.874 998.135 365.207 997.511 373.823C997.05 380.195 996.578 386.722 996.078 393.66C1003.15 389.147 1006.63 386.368 1002.53 380.381C1002.38 380.157 1005.85 376.67 1008.07 375.793C1009.77 375.133 1011.7 375.084 1013.64 375.034C1014.5 375.012 1015.35 374.991 1016.18 374.916C1016.06 373.991 1015.96 373.061 1015.85 372.13C1015.64 370.286 1015.43 368.439 1015.12 366.617C1014.76 364.569 1014.29 362.539 1013.74 360.152C1013.5 359.083 1013.23 357.941 1012.96 356.695C1018.46 358.56 1022.04 359.772 1026.27 361.208C1028 359.093 1028.92 356.266 1029.86 353.379C1031.73 347.636 1033.68 341.654 1042.22 340.562C1041.5 342.401 1040.29 344.105 1039.08 345.802C1036.26 349.749 1033.48 353.654 1037.05 359.119C1034.74 360.637 1032.42 362.148 1029.73 363.897C1027.77 365.179 1025.6 366.588 1023.1 368.221C1024.76 369.224 1026.35 370.189 1027.89 371.124C1032.88 374.152 1037.38 376.88 1042 379.672C1039.07 386.104 1043.56 390.623 1048.63 395.724C1050.03 397.132 1051.47 398.583 1052.81 400.132C1053.75 395.867 1054.69 391.602 1055.66 387.174C1057.08 380.701 1058.58 373.881 1060.27 366.206C1059.15 363.94 1057.57 360.764 1055.73 357.078C1054.3 354.212 1052.72 351.038 1051.08 347.742C1048.49 348.693 1045.84 349.682 1044.31 350.26V336.216C1048.96 342.429 1053.64 348.641 1058.56 355.184L1059.17 356.005C1059.17 353.199 1059.13 350.394 1059.09 347.591C1058.98 340.593 1058.88 333.611 1059.43 326.686C1059.61 324.401 1060.97 322.246 1062.34 320.06C1063.25 318.622 1064.16 317.172 1064.75 315.663C1065.63 313.411 1066.13 311.019 1066.63 308.631C1066.84 307.577 1067.06 306.523 1067.31 305.483C1065.2 305.146 1063.09 304.804 1060.96 304.459C1059.26 304.185 1057.55 303.909 1055.83 303.633C1057.59 310.963 1053.02 320.494 1046.88 322.601C1047.23 321.943 1047.59 321.292 1047.95 320.643C1048.81 319.082 1049.66 317.531 1050.39 315.924C1051.03 314.483 1051.55 312.99 1052.26 310.961C1052.6 309.971 1053 308.853 1053.47 307.55C1052.1 307.995 1050.93 308.376 1049.84 308.73C1048.09 309.299 1046.55 309.799 1044.74 310.385C1045.08 309.301 1045.43 308.251 1045.76 307.223C1046.46 305.102 1047.12 303.076 1047.72 301.041C1047.84 300.648 1047.95 300.255 1048.07 299.861C1048.78 297.503 1049.49 295.12 1049.68 292.723C1049.72 292.275 1045.35 290.541 1044.74 291.137C1042.31 293.506 1040.34 296.434 1038.75 299.456C1038.39 300.126 1039.16 301.373 1039.62 302.115C1039.76 302.344 1039.87 302.525 1039.91 302.626C1034.44 306.692 1029.29 310.534 1025.88 313.089C1024.92 310.583 1024.17 307.891 1023.42 305.227C1021.77 299.327 1020.15 293.563 1016.39 290.261C1009.77 284.442 997.421 288.097 992.777 293.693C992.498 293.106 992.22 292.526 991.943 291.948C991.514 291.055 991.088 290.167 990.669 289.272C990.297 289.255 989.921 289.239 989.545 289.222C989.091 289.201 988.637 289.181 988.189 289.16C987.732 292.867 987.279 296.578 986.811 300.422C986.382 303.947 985.939 307.584 985.466 311.429C984.63 312.101 983.557 312.971 982.564 313.776C981.406 314.715 980.358 315.564 979.927 315.906C977.386 316.769 974.988 317.41 972.764 318.005C968.359 319.182 964.636 320.177 961.835 322.359C953.269 329.054 947.753 338.314 942.249 347.555C941.115 349.46 939.98 351.364 938.82 353.244C937.459 355.464 933.262 356.564 930.204 357.012C921.606 358.243 917.633 363.055 912.541 370.347C911.356 372.049 910.226 373.909 909.072 375.811C903.886 384.352 898.196 393.723 884.696 393.25C878.765 393.045 871.156 395.283 874.028 405.746C876.788 415.817 877.851 426.355 878.019 437.378C877.591 436.077 877.167 434.78 876.755 433.524C876.235 431.933 875.736 430.408 875.277 429.022C873.02 429.397 870.762 429.874 868.507 430.35C863.256 431.457 858.021 432.562 852.841 432.379C849.564 432.264 846.358 430.927 843.124 429.578C840.595 428.523 838.05 427.461 835.439 426.97C833.086 426.534 830.558 427.139 828.011 427.749C826.643 428.076 825.269 428.405 823.913 428.574C822.479 428.756 821.027 428.838 819.577 428.921C817.295 429.051 815.017 429.18 812.816 429.693C811.551 429.988 810.078 430.267 808.554 430.555C803.52 431.507 797.93 432.564 797.429 434.655C796.166 440.072 794.306 438.708 792.566 437.431C791.712 436.805 790.886 436.199 790.174 436.426C789.937 435.496 789.63 434.561 789.324 433.628C788.617 431.475 787.911 429.326 788.067 427.232C788.206 425.377 789.215 423.591 790.385 421.52C790.944 420.53 791.54 419.475 792.095 418.317C790.779 418.317 789.594 418.279 788.501 418.244C786.328 418.175 784.52 418.118 782.77 418.391C776.895 419.305 772.643 421.226 773.202 428.947C773.739 436.496 773.614 444.101 773.491 451.495C773.44 454.623 773.389 457.714 773.389 460.747H700.949C700.931 460.504 700.912 460.267 700.893 460.029C700.875 459.791 700.856 459.553 700.837 459.311C701.301 459.259 701.765 459.204 702.384 459.13C703.108 459.043 704.045 458.931 705.444 458.77C704.587 458.086 703.812 457.329 703.103 456.638C701.744 455.313 700.631 454.227 699.662 454.35C694.13 455.019 688.905 453.61 683.626 452.187C676.838 450.357 669.962 448.504 662.23 451.011C653.826 453.733 644.588 453.928 635.373 454.121C631.582 454.201 627.795 454.281 624.071 454.536C623.549 454.57 623.021 454.052 622.468 453.511C622.112 453.163 621.747 452.804 621.367 452.578C616.573 449.706 611.948 447.43 606.185 450.937C601.56 453.753 596.636 455.562 591.227 451.328C590.155 450.486 588.14 450.857 586.121 451.23C585.241 451.392 584.361 451.554 583.557 451.617C580.296 460.952 568.898 464.305 557.078 459.311C556.32 458.989 555.592 458.581 555.236 458.362C548.923 462.408 543.157 462.079 537.563 461.76C535.433 461.639 533.328 461.519 531.228 461.642C523.998 462.062 521.955 457.592 519.867 453.025C518.25 449.486 516.606 445.89 512.503 444.465C513.939 449.333 515.076 453.193 516.121 456.756C498.832 457.576 482.494 458.36 466.156 459.162L466.119 458.844C466 457.828 465.88 456.799 465.745 455.786C473.579 453.846 481.412 451.906 490.01 449.78C489.882 449.693 489.699 449.519 489.476 449.306C488.79 448.653 487.717 447.631 486.634 447.617C476.708 447.444 466.771 447.46 456.797 447.477C453.858 447.481 450.917 447.486 447.971 447.486L447.654 445.59C447.007 441.724 446.13 436.49 444.875 429.022C442.178 438.06 436.3 440.304 430.714 442.436C428.496 443.283 426.324 444.112 424.415 445.341C411.041 453.968 398.487 451.143 385.853 448.3C381.661 447.357 377.461 446.412 373.219 445.882C371.273 445.639 369.247 446.062 366.805 446.572C365.504 446.844 364.084 447.141 362.495 447.374C362.765 446.695 363.018 446.056 363.26 445.445C364.174 443.139 364.93 441.23 365.815 439.019C364.354 439.227 362.874 439.436 361.368 439.649C360.315 439.797 359.249 439.947 358.168 440.101L343.509 401.158C343.415 401.158 343.341 401.158 343.247 401.139C341.457 396.626 339.667 392.112 338.007 387.953C339.256 387.217 340.681 386.671 342.077 386.136C346.624 384.395 350.867 382.77 347.742 375.066C346.363 375.512 345.061 375.936 343.716 376.374C342.588 376.742 341.429 377.119 340.17 377.527C338.865 375.401 337.503 373.182 336.515 371.559C330.304 375.942 324.112 380.325 318.237 384.484C318.439 387.249 318.646 390.087 318.856 392.969C319.21 397.806 319.572 402.768 319.934 407.723H322.359V390.061C322.704 389.921 323.053 389.781 323.403 389.641C323.753 389.501 324.103 389.361 324.448 389.221C324.727 389.744 325.07 390.262 325.414 390.778C326.149 391.884 326.882 392.989 326.984 394.145C327.288 397.38 327.458 400.626 327.628 403.874C327.825 407.611 328.021 411.349 328.42 415.071C328.607 416.787 330.341 418.522 331.759 419.827C332.094 420.126 335.022 418.708 335.022 418.074C335.022 417.039 334.641 416.023 334.256 415C333.982 414.272 333.707 413.54 333.568 412.796C332.777 408.404 332.065 404.003 331.354 399.598C331.092 397.98 330.831 396.361 330.565 394.742C331.013 394.602 331.456 394.458 331.898 394.313C332.341 394.169 332.784 394.024 333.232 393.884C334.697 396.573 336.239 399.229 337.781 401.884C341.34 408.015 344.897 414.141 347.5 420.648C349.758 426.281 350.942 432.347 352.125 438.413C352.642 441.064 353.16 443.715 353.766 446.33L349.57 447.43L349.563 447.411C348.335 443.743 347.105 440.073 345.541 435.363C344.982 435.68 342.8 436.949 340.506 438.291C340.305 437.664 340.113 437.044 339.864 436.242C339.58 435.328 339.223 434.178 338.697 432.51C338.159 433.872 337.712 435.005 337.275 436.11C336.606 437.803 335.963 439.432 335.06 441.723C334.513 440.553 333.984 439.422 333.469 438.322C330.949 432.932 328.783 428.301 326.63 423.669L326.628 423.67C325.845 423.931 325.062 424.192 324.261 424.453C325.678 429.115 327.096 433.778 329.222 440.753C323.511 440.284 317.857 439.822 312.239 439.363C302.907 438.601 293.674 437.848 284.442 437.079C284.386 437.074 284.327 437.069 284.265 437.064C283.651 437.011 282.807 436.938 282.689 436.65C279.498 428.066 275.052 430.244 270.623 432.413C268.374 433.515 266.13 434.614 264.057 434.3C261.174 433.867 258.362 432.986 255.55 432.105C252.795 431.242 250.039 430.379 247.215 429.936C237.981 428.474 228.653 427.584 219.331 426.693C218.542 426.618 217.753 426.543 216.964 426.467C216.684 426.442 216.31 427.402 215.934 428.365C215.816 428.667 215.699 428.968 215.584 429.24C210.101 427.176 208.834 422.588 207.568 418.001C206.934 415.706 206.301 413.412 205.139 411.434C203.757 409.077 202.694 406.538 201.499 403.683C200.936 402.338 200.343 400.923 199.674 399.423C201.109 399.058 202.891 398.611 204.872 398.113C205.724 397.899 206.612 397.676 207.526 397.446C207.072 396.521 206.678 395.515 206.281 394.504C204.415 389.743 202.499 384.852 194.023 387.636C193.332 387.866 191.658 385.121 189.995 382.393C189.329 381.301 188.665 380.212 188.066 379.318C190.952 380.557 193.918 381.83 198.425 383.757C195.972 370.991 193.534 358.319 191.106 345.699C188.106 330.108 185.122 314.595 182.143 299.083C185.785 301.982 186.342 306.196 186.904 310.454C187.655 316.138 188.416 321.902 196.541 324.727C195.96 319.324 195.401 314.193 194.855 309.184C194.403 305.029 193.959 300.957 193.52 296.882C193.581 296.925 193.642 296.968 193.703 297.012C192.112 294.072 190.521 291.148 188.82 288.041C192.475 287.016 196.261 285.953 200.644 284.703C200.453 283.817 200.256 282.901 200.037 281.883C199.681 280.225 199.267 278.296 198.723 275.788C200.58 276.482 202.202 277.085 203.702 277.642C205.306 278.238 206.77 278.782 208.235 279.332C208.132 279.061 208.025 278.795 207.918 278.53C207.811 278.264 207.704 277.998 207.601 277.728C208.965 277.334 210.426 276.717 211.887 276.101C215.057 274.762 218.225 273.426 220.395 274.37C236.528 281.402 250.759 277.578 265.511 270.211C269.931 268.002 275.009 267.144 280.098 266.285C282.569 265.868 285.043 265.45 287.445 264.877C289.699 264.343 291.925 263.681 294.303 262.975C295.328 262.67 296.382 262.357 297.479 262.042C299.127 265.017 300.838 268.1 302.582 271.244C304.666 274.999 306.798 278.841 308.93 282.689C309.359 282.502 309.784 282.311 310.209 282.119C310.633 281.928 311.057 281.737 311.485 281.551C310.373 278.689 309.265 275.828 308.134 272.907C306.684 269.164 305.196 265.323 303.615 261.259C309.707 259.724 315.761 258.203 321.907 256.657C330.55 254.485 339.376 252.266 348.749 249.901C348.886 247.328 349.084 243.431 349.303 239.15L349.365 237.927C353.381 235.229 359.629 240.016 368.109 252.288C370.949 250.327 369.815 247.275 368.754 244.42C367.453 240.92 366.262 237.715 372.641 237.181H380.456C377.865 232.74 376.358 230.154 374.859 227.582L374.823 227.52L374.828 227.517C375.834 227.015 376.839 226.512 377.863 226.009C378.057 226.684 378.254 227.359 378.476 228.119C378.788 229.185 379.148 230.418 379.616 232.052C384.148 229.161 388.419 226.438 393.194 223.398C392.198 222.817 391.33 222.314 390.506 221.836C389.663 221.347 388.867 220.886 388.028 220.395C389.65 217.449 391.217 214.614 393.828 209.895C395.041 212.797 396.088 215.304 397.054 217.621C397.945 219.756 398.768 221.728 399.591 223.697C399.2 223.911 398.813 224.121 398.426 224.331C398.039 224.54 397.652 224.75 397.26 224.965C400.656 225.894 404.036 226.824 407.431 227.77C405.515 228.275 403.63 228.766 402.079 229.169C400.899 229.477 399.913 229.733 399.256 229.907C399.905 231.161 400.521 232.347 401.112 233.485C402.491 236.138 403.736 238.534 404.963 240.948C406.271 243.547 407.55 246.16 408.83 248.771C411.525 254.275 414.219 259.775 417.179 265.138C419.103 268.627 421.397 271.904 423.692 275.182C424.734 276.67 425.776 278.159 426.784 279.667C429.987 285.304 433.189 290.927 435.53 295.037L436.613 296.938C438.411 296.67 439.981 296.356 441.391 296.074C444.106 295.532 446.232 295.107 448.27 295.352C451.131 295.694 453.968 296.319 456.801 296.943C460.468 297.751 464.13 298.558 467.834 298.747C470.324 298.872 472.928 297.472 475.476 296.103C476.344 295.636 477.206 295.173 478.055 294.774C479.959 293.879 481.795 292.821 483.633 291.763C484.512 291.257 485.392 290.75 486.28 290.261C488.788 294.401 491.301 298.542 493.815 302.682C495.909 306.132 498.003 309.583 500.095 313.033C498.465 309.339 496.838 305.644 495.211 301.95C493.249 297.494 491.287 293.038 489.32 288.582C489.19 286.661 489.06 284.741 488.929 282.82C488.18 271.783 487.432 260.753 486.765 249.696C486.717 248.833 486.925 247.962 487.254 246.581C487.444 245.783 487.675 244.814 487.921 243.578C491.912 252.904 495.101 260.345 498.291 267.768C498.944 267.526 499.596 267.283 500.23 267.041C499.274 263.56 498.312 260.084 497.343 256.587C496.63 254.014 495.914 251.428 495.195 248.819H498.776C494.864 242.793 490.989 236.82 487.094 230.818C482.093 223.112 477.061 215.356 471.881 207.377C474.415 206.419 476.244 205.721 478.337 204.924C479.095 204.635 479.887 204.333 480.759 204.001C479.848 205.701 479.188 206.921 478.513 208.171C478.165 208.814 477.813 209.465 477.421 210.193C479.88 210.791 482.304 211.379 484.808 211.986C487.07 212.534 489.397 213.098 491.875 213.7V201.073C493.135 200.876 494.364 200.578 495.55 200.29C498.067 199.679 500.385 199.117 502.375 199.674C505.619 200.601 508.54 202.952 511.32 205.191C511.673 205.475 512.023 205.757 512.372 206.034C513.78 207.158 514.911 208.631 516.043 210.105C516.545 210.76 517.048 211.415 517.576 212.04C518.091 211.539 518.609 211.039 519.212 210.456C520.138 209.562 521.265 208.473 522.891 206.892C523.906 209.527 524.896 212.083 525.867 214.588C527.678 219.265 529.422 223.767 531.135 228.285C531.288 228.693 531.444 229.101 531.6 229.51C532.414 231.64 533.233 233.784 533.671 236.006C533.926 237.291 533.807 238.655 533.688 240.019C533.632 240.655 533.577 241.29 533.559 241.918C533.037 241.896 532.491 241.916 531.945 241.937C530.699 241.984 529.448 242.031 528.449 241.564C526.714 240.762 524.532 239.288 524.066 237.666C522.562 232.394 521.343 227.034 520.124 221.671C519.665 219.653 519.206 217.635 518.732 215.621C518.06 215.751 517.389 215.887 516.718 216.022C516.046 216.157 515.375 216.292 514.703 216.423C515.32 220.358 515.932 224.298 516.548 228.261C517.236 232.694 517.93 237.156 518.639 241.676L518.632 241.679C512.186 244.306 512.148 244.321 510.47 235.353C510.407 235.017 510.345 234.681 510.283 234.345C509.383 229.473 508.479 224.575 505.844 219.743C505.748 220.586 505.641 221.429 505.536 222.27C505.274 224.349 505.013 226.424 504.893 228.508C504.776 230.401 504.804 232.303 504.832 234.213C504.844 235.052 504.856 235.892 504.856 236.733C502.972 236.584 501.461 236.454 499.969 236.323C508.386 243.109 510.157 252.326 511.902 261.411C512.253 263.238 512.603 265.059 513.006 266.854C514.013 271.33 515.039 274.799 520.653 273.382C520.257 273.583 519.781 273.761 519.303 273.94C518.231 274.341 517.154 274.744 516.96 275.415C516.574 276.761 516.423 278.154 516.272 279.548C515.911 282.866 515.551 286.188 512.018 288.881C510.781 289.829 512.2 294.485 513.297 298.082C513.474 298.661 513.642 299.212 513.789 299.717C513.92 300.164 517.501 299.791 519.422 299.493C520.779 299.269 522.102 298.87 523.748 298.375C524.567 298.128 525.467 297.857 526.491 297.572C525.036 291.305 523.227 283.547 521.418 275.807C521.851 275.471 522.38 275.15 522.91 274.829C524.089 274.113 525.273 273.393 525.427 272.505C525.588 271.55 525.602 270.569 525.617 269.551C525.644 267.727 525.673 265.784 526.547 263.665C528.374 268.811 530.196 273.957 532.019 279.103C533.843 284.252 535.666 289.401 537.495 294.551L541.747 292.984C539.323 286.537 536.884 280.09 534.471 273.711L533.69 271.647C536.272 271.714 538.455 271.777 540.315 271.854C545.397 281.374 549.531 289.119 553.683 296.863L558.887 298.654C566.781 300.2 569.141 306.117 571.499 312.027C572.383 314.243 573.267 316.458 574.442 318.442C575.65 320.481 576.621 322.674 577.761 325.248C578.309 326.488 578.898 327.817 579.57 329.259C579.826 328.38 580.068 327.709 580.259 327.177C580.571 326.31 580.749 325.815 580.634 325.399C578.962 319.437 577.264 313.481 575.565 307.523C573.055 298.721 570.544 289.916 568.119 281.085C567.853 280.111 568.171 278.974 568.49 277.832C568.642 277.289 568.794 276.745 568.884 276.217C569.733 276.369 570.583 276.521 571.436 276.673C573.618 277.063 575.815 277.456 578.041 277.858C579.098 274.091 584.985 276.018 595.703 283.64L587.367 263.609C597.96 260.047 608.554 256.634 618.42 265.903C616.656 267.298 615.236 268.404 613.865 269.47C619.075 265.675 621.099 270.299 621.833 273.307C622.212 271.651 622.514 269.901 622.816 268.15C623.748 262.745 624.683 257.324 627.894 254.563C632.405 250.681 633.595 253.86 634.88 257.295C635.693 259.469 636.545 261.746 638.302 262.397C639.943 250.106 640.54 238.505 632.483 228.415C632.404 228.323 632.519 228.084 632.633 227.847C632.681 227.746 632.729 227.646 632.762 227.557C633.182 227.38 633.596 227.208 634.011 227.035C634.426 226.863 634.842 226.69 635.262 226.513C635.61 215.762 633.366 205.492 630.773 195.286C635.959 194.734 639.045 194.408 641.901 194.116C641.136 191.486 640.364 188.841 639.567 186.111C639.082 184.446 638.586 182.75 638.078 181.005C630.835 181.126 631.013 184.672 631.216 188.716C631.316 190.721 631.423 192.849 630.635 194.742C630.274 193.331 629.908 191.92 629.542 190.51C628.207 185.37 626.872 180.23 625.824 175.037C625.312 172.491 625.634 169.769 625.959 167.023C626.108 165.766 626.258 164.503 626.328 163.25C625.321 163.1 623.922 162.877 622.523 162.653C622.72 162.264 622.897 161.785 623.072 161.308C623.444 160.298 623.812 159.298 624.37 159.184C628.055 158.419 631.804 157.903 636.047 157.318C637.494 157.119 638.998 156.912 640.577 156.685V185.425C643.912 175.632 644.42 165.277 644.936 154.766C645.73 138.593 646.541 122.049 657.698 106.607C658.6 110.607 659.351 113.952 660.037 117.01C660.756 120.213 661.404 123.102 662.081 126.097C661.22 126.455 660.355 126.814 659.486 127.173C658.003 127.786 656.514 128.402 655.031 129.026C656.723 132.329 658.272 135.376 659.78 138.342C660.384 139.529 660.981 140.703 661.578 141.876C661.289 142.1 661.004 142.323 660.72 142.547C660.435 142.771 660.151 142.995 659.862 143.219C659.079 142.809 658.295 142.395 657.471 141.959C656.607 141.502 655.698 141.021 654.695 140.496C654.965 141.156 655.193 141.918 655.413 142.656C655.878 144.213 656.312 145.665 657.046 145.83C658.665 146.206 660.446 145.879 662.408 145.52C663.271 145.362 664.169 145.198 665.103 145.084C670.978 154.446 675.771 165.152 669.075 177.536C682.765 178.73 684.052 180.595 679.893 192.195C679.131 194.325 677.86 196.286 676.587 198.249C676.081 199.03 675.574 199.811 675.099 200.604C675.084 202.109 675.077 203.615 675.07 205.121C675.052 209.169 675.033 213.22 674.857 217.262C674.807 218.223 674.297 219.16 673.692 220.272C673.393 220.822 673.07 221.414 672.768 222.074C670.25 221.477 667.826 220.899 664.058 219.985C670.85 232.974 668.193 244.947 665.561 256.81C664.644 260.942 663.73 265.061 663.219 269.204H646.769C645.804 272.194 644.875 275.087 643.963 277.924C642.759 281.669 641.587 285.315 640.409 288.955C639.837 288.437 639.266 287.919 638.696 287.401C637.503 286.317 636.312 285.235 635.112 284.162L634.851 284.293C634.93 282.936 635.001 281.587 635.074 280.211C635.123 279.298 635.172 278.374 635.224 277.429C627.074 278.511 622.448 285.132 621.74 296.21C623.265 296.21 624.796 296.257 626.327 296.303C630.019 296.415 633.708 296.527 637.294 295.987C639.062 295.718 640.654 294.331 642.245 292.945C642.971 292.313 643.696 291.682 644.438 291.156C644.27 297.348 647.44 298.225 652.812 297.012C659.134 295.595 660.608 297.367 659.004 303.41C665.699 303.932 666.763 302.813 664.953 297.665C664.58 296.583 664.972 294.905 665.662 293.954C665.998 293.487 668.609 293.786 668.814 294.271C669.611 296.305 670.176 298.431 670.738 300.55C670.939 301.307 671.14 302.062 671.351 302.813C670.978 303.326 670.6 303.834 670.222 304.342C669.845 304.85 669.467 305.359 669.094 305.871H752.966C750.28 310.851 749.068 313.089 746.103 318.554C745.694 316.637 745.379 315.16 745.113 313.911C744.819 312.534 744.584 311.434 744.349 310.329C740.636 321.954 732.705 322.687 725.153 323.385C721.933 323.683 718.782 323.974 716.056 325.1C712.718 326.479 709.068 327.084 705.414 327.689C703.781 327.959 702.146 328.229 700.539 328.569C700.669 329.427 700.8 330.304 700.912 331.162C702.62 330.947 704.328 330.727 705.972 330.516C707.47 330.323 708.914 330.137 710.256 329.968C711.31 331.244 712.301 332.44 713.26 333.596C714.318 334.873 715.336 336.102 716.355 337.335C716.896 336.629 717.406 335.881 717.916 335.132C719.077 333.429 720.241 331.721 721.782 330.49C723.703 328.944 726.243 328.094 728.683 327.278C728.92 327.198 729.157 327.119 729.392 327.04C732.711 325.929 736.067 324.935 739.427 323.939C740.918 323.497 742.411 323.054 743.902 322.601L743.585 320.121C747.352 321.445 751.12 322.769 752.463 323.235C752.11 325.292 751.671 327.149 751.267 328.86C750.472 332.222 749.81 335.019 750.206 337.652C751.264 344.654 747.305 348.442 743.279 352.295C742.693 352.855 742.106 353.417 741.533 353.99C740.011 355.513 738.313 356.86 736.615 358.207C735.9 358.774 735.185 359.341 734.483 359.921L735.863 361.898L735.89 361.881C737.634 360.768 739.379 359.654 741.142 358.541C741.701 358.951 742.279 359.362 742.839 359.772C741.461 362.133 740.084 364.49 738.649 366.945C737.092 369.61 735.467 372.391 733.7 375.42C732.133 373.145 730.882 371.317 729.63 369.489C729.004 368.575 728.378 367.661 727.713 366.691C725.531 374.711 720.402 377.49 712.252 376.334C713.688 377.565 715.105 378.796 715.963 379.542C714.322 381.463 712.606 383.458 710.871 385.417C710.821 385.362 710.77 385.308 710.719 385.254C711.597 386.597 712.42 388.006 713.243 389.415C715.26 392.87 717.279 396.327 720.122 398.827C721.373 399.935 723.887 399.521 726.493 399.091C727.967 398.849 729.47 398.601 730.79 398.621C733.189 398.658 735.591 398.794 737.991 398.931C741.786 399.148 745.578 399.364 749.348 399.181C751.33 399.079 753.268 398.147 755.328 397.156C756.293 396.692 757.284 396.215 758.319 395.805C764.194 401.904 766.544 401.606 770.927 393.119C771.486 397.167 771.971 400.766 772.456 404.366H774.396C774.881 397.498 775.37 390.626 775.859 383.749C776.461 375.293 777.063 366.83 777.66 358.355C778.441 358.555 779.216 358.755 780.117 358.988C781.647 359.383 783.537 359.872 786.425 360.611C785.549 358.469 784.739 356.519 783.983 354.697C782.309 350.665 780.897 347.262 779.599 343.807C777.898 339.271 780.558 337.651 783.41 335.913C785.343 334.736 787.365 333.504 788.179 331.274C787.53 331.134 786.91 330.999 786.31 330.869C784.752 330.531 783.323 330.222 781.856 329.912C782.485 329.328 783.1 328.764 783.845 328.082C784.337 327.632 784.885 327.13 785.53 326.536C784.925 326.434 784.345 326.282 783.821 326.145C782.813 325.88 782.013 325.67 781.632 325.977C780.783 326.672 780.04 327.532 779.301 328.387C778.255 329.598 777.218 330.798 775.906 331.498C774.749 332.109 773.157 331.886 771.566 331.663C770.875 331.567 770.183 331.47 769.528 331.442C769.769 331.1 770.096 330.737 770.423 330.372C771.134 329.581 771.85 328.784 771.71 328.196C770.14 321.644 773.307 316.915 776.472 312.19C777.384 310.829 778.295 309.468 779.093 308.064C780.332 308.976 781.68 309.82 783.029 310.664C786.154 312.62 789.285 314.578 791.069 317.398C793.656 321.461 795.255 326.156 796.852 330.847C797.535 332.853 798.218 334.858 798.977 336.813C799.366 337.82 799.776 338.812 800.186 339.804C800.444 340.429 800.702 341.053 800.954 341.681L803.435 341.401C802.987 335.731 802.54 330.08 802.036 323.888C804.367 322.844 807.053 321.65 810.783 319.99C806.757 313.496 803.099 307.592 799.463 301.692ZM799.634 301.677C803.288 302.9 806.963 304.113 811.623 305.648C811.975 306.344 812.491 307.373 813.105 308.594C813.952 310.282 814.985 312.339 816.024 314.395C816.848 313.377 817.674 312.357 818.488 311.352C820.493 308.876 822.428 306.486 824.1 304.417C823.099 303.495 822.17 302.67 821.307 301.904C818.922 299.786 817.047 298.122 815.595 296.136C815.382 295.848 816.8 294.375 818.37 292.743C819.139 291.945 819.944 291.108 820.612 290.354C826.524 304.864 832.437 308.128 843.385 303.316C844.712 302.729 845.594 301.138 846.473 299.552C846.878 298.82 847.283 298.09 847.73 297.46C846.988 297.443 846.195 297.337 845.4 297.232C843.66 297 841.916 296.768 840.699 297.46C834.88 300.78 831.094 300.5 828.893 293.431C828.332 291.612 826.872 290.064 826.224 289.378C826.075 289.22 825.969 289.108 825.928 289.049C819.083 287.874 813.823 286.978 808.321 286.046C810.298 283.043 811.529 281.178 812.76 279.313C806.826 281.517 804.732 278.359 803.065 275.845C802.348 274.764 801.71 273.802 800.88 273.438C798.953 274.125 797.027 274.808 795.107 275.489C793.068 276.212 791.035 276.932 789.018 277.653C790.8 281.692 792.586 285.732 794.373 289.771C796.128 293.74 797.883 297.708 799.634 301.677ZM710.701 385.235C710.416 384.936 710.116 384.648 709.819 384.361C709.045 383.616 708.285 382.884 707.813 382.004C707.289 380.996 707.05 379.831 706.813 378.672C706.712 378.18 706.611 377.688 706.489 377.21C705.998 377.671 705.366 378.149 704.732 378.627C703.34 379.678 701.941 380.733 702.031 381.631C702.388 385.136 703.271 388.595 704.306 392.653C704.731 394.315 705.181 396.079 705.631 397.987C706.528 395.732 707.295 393.8 707.984 392.062C708.999 389.504 709.847 387.366 710.701 385.235ZM675.067 200.658C675.021 200.734 674.976 200.81 674.932 200.887C674.063 200.866 673.195 200.823 672.328 200.781C670.086 200.671 667.855 200.562 665.662 200.831C665.065 200.905 663.965 204.486 664.58 205.326C665.799 206.954 667.421 208.273 669.081 209.622C669.759 210.172 670.443 210.728 671.108 211.312L671.522 210.202C672.983 206.286 674.035 203.466 675.067 200.658ZM630.635 194.742C630.552 194.94 630.46 195.136 630.356 195.329H630.375C630.509 195.314 630.642 195.3 630.773 195.286C630.727 195.105 630.681 194.923 630.635 194.742ZM541.167 271.891C540.891 271.878 540.607 271.866 540.315 271.854C540.147 271.538 539.978 271.221 539.807 270.901C540.28 271.245 540.733 271.575 541.167 271.891ZM541.167 271.891C549.544 272.28 550.894 273.045 553.534 276.03C552.89 276.376 552.241 276.721 551.591 277.067C550.944 277.412 550.297 277.756 549.655 278.101L549.647 278.095C547.262 276.344 544.875 274.591 541.167 271.891ZM501.697 315.863C503.674 320.181 505.656 324.493 507.638 328.803C509.074 331.927 510.51 335.051 511.943 338.174L514.051 337.279C513.855 335.956 513.659 334.638 513.464 333.319C513.268 331.999 513.072 330.678 512.876 329.353C513.277 329.054 513.607 329.203 513.938 329.353C514.268 329.502 514.599 329.651 515 329.353C515.207 330.33 515.485 330.858 515.765 331.389C516.041 331.911 516.318 332.438 516.531 333.4C516.88 333.042 517.225 332.688 517.57 332.334C517.924 331.97 518.279 331.605 518.639 331.236C515.694 328.565 512.745 325.888 509.796 323.212C507.095 320.761 504.394 318.31 501.697 315.863ZM407.431 227.77C407.578 227.811 407.725 227.852 407.872 227.893L408.096 227.594C407.874 227.653 407.652 227.712 407.431 227.77ZM193.747 297.043C196.302 298.855 198.894 300.693 202.752 303.428C202.89 303.009 203.149 302.471 203.431 301.887C204.139 300.418 204.991 298.65 204.43 297.702C203.028 295.334 201.006 293.332 198.983 291.329C198.155 290.509 197.327 289.689 196.541 288.843C196.264 289.014 195.987 289.187 195.709 289.361C195.257 289.643 194.802 289.928 194.34 290.205C194.136 292.484 193.933 294.764 193.747 297.043ZM188.066 379.318C187.98 379.189 187.896 379.065 187.813 378.945L187.589 379.113L187.619 379.126C187.768 379.19 187.917 379.254 188.066 379.318ZM215.584 429.24C215.527 429.375 215.471 429.502 215.416 429.619L215.751 429.302C215.695 429.282 215.639 429.261 215.584 429.24ZM583.37 451.487C583.173 450.85 582.982 450.21 582.791 449.571C582.381 448.199 581.97 446.827 581.51 445.472C578.116 435.438 568.809 432.099 559.111 438.646H566.179C564.152 440.75 561.999 441.221 559.906 441.68C559.438 441.782 558.974 441.884 558.514 442.003C557.3 442.316 556.187 442.995 555.072 443.674C554.594 443.966 554.115 444.258 553.627 444.521C553.972 444.945 554.293 445.4 554.614 445.854C555.335 446.875 556.053 447.891 557.022 448.549C558.402 449.463 560.304 449.612 559.745 449.445C561.444 448.352 562.956 447.379 564.369 446.47C567.25 444.616 569.717 443.028 572.521 441.238C572.886 444.821 573.219 448.149 573.569 451.638C573.683 452.781 573.8 453.941 573.919 455.133C576.178 454.261 577.949 453.578 579.47 452.992C580.93 452.429 582.16 451.955 583.37 451.487ZM1067.53 305.388C1070.12 305.66 1072.72 305.918 1076.89 306.319C1066.23 309.669 1068.63 315.588 1071.08 321.651C1071.52 322.745 1071.97 323.843 1072.34 324.932C1074.62 319.561 1076.89 314.19 1079.45 308.184C1081.29 309.9 1082.95 311.448 1084.69 313.071C1083.8 314.005 1082.97 314.888 1082.15 315.747C1080.9 317.064 1079.71 318.326 1078.48 319.636C1079.37 320.141 1080.18 320.602 1081.03 321.082C1082.69 322.019 1084.47 323.031 1087.22 324.597C1076.86 323.817 1077.51 328.375 1078.14 332.818C1078.27 333.707 1078.39 334.591 1078.43 335.426C1082.6 331.817 1086.77 328.207 1090.95 324.597C1090.13 325.708 1089.33 326.848 1088.54 327.987C1086.77 330.519 1085.01 333.047 1082.9 335.246C1078.76 339.536 1078.25 349.29 1083.51 350.503C1089.88 351.961 1092.93 356.37 1095.76 360.47C1097.06 362.345 1098.31 364.157 1099.81 365.591C1100.71 363.635 1101.59 361.72 1102.47 359.826C1103.75 357.042 1105.01 354.307 1106.27 351.566C1106.59 351.711 1106.91 351.853 1107.23 351.994C1107.69 352.198 1108.15 352.401 1108.6 352.61C1108.04 349.57 1107.48 346.53 1106.77 342.744C1106 343.67 1105.35 344.448 1104.79 345.127C1103.97 346.102 1103.34 346.871 1102.74 347.574C1101.92 345.187 1101.31 343.415 1100.69 341.644C1100.69 340.32 1100.59 338.959 1100.49 337.598C1100.26 334.394 1100.03 331.192 1101.08 328.495C1101.89 326.438 1104.13 324.931 1106.85 323.095C1108.2 322.183 1109.67 321.19 1111.15 320.009C1109.46 328.271 1108.17 334.556 1106.9 340.823C1113.24 339.505 1115.91 337.118 1114.9 333.661C1113.95 334.346 1113.05 335.009 1112.17 335.658C1111.92 335.839 1111.68 336.018 1111.43 336.198C1111.21 335.778 1110.98 335.354 1110.75 334.931C1110.52 334.506 1110.3 334.081 1110.07 333.661C1113.3 332.02 1116.52 330.379 1119.4 328.924C1112.98 323.366 1113.63 294.905 1116.38 292.294C1115.91 288.324 1115.5 284.734 1115.1 281.286C1114.63 277.202 1114.18 273.318 1113.71 269.241C1108.45 273.458 1105.43 270.916 1102.49 268.443C1100.98 267.164 1099.48 265.903 1097.71 265.605L1100.38 265.3C1104.76 264.8 1109.32 264.281 1114.96 263.646C1114.57 263.304 1114.15 262.833 1113.7 262.331C1112.62 261.11 1111.37 259.704 1109.94 259.506C1106.62 259.033 1103.22 259.115 1099.47 259.205C1097.89 259.243 1096.24 259.282 1094.52 259.282C1094.84 260.184 1095.2 261.192 1095.57 262.255C1096 263.457 1096.45 264.729 1096.9 265.996C1096.68 265.931 1096.46 265.858 1096.24 265.786C1095.65 265.591 1095.06 265.398 1094.46 265.344C1094.27 265.344 1093.7 266.5 1093.86 266.798C1094.62 268.107 1095.46 269.369 1096.74 271.309C1097.27 272.105 1097.88 273.016 1098.58 274.091C1096.87 275.903 1094.82 278.066 1092.53 280.474C1089.64 283.518 1086.38 286.955 1082.95 290.578L1081.84 287.82C1080.46 284.401 1079.25 281.404 1078.01 278.324C1080.55 277.97 1082.41 277.709 1085.62 277.261C1084.59 276.456 1083.71 275.768 1082.99 275.209C1081.7 274.203 1080.96 273.622 1080.86 273.55C1081.08 272.337 1081.34 271.116 1081.57 270.029C1082.01 267.957 1082.35 266.374 1082.09 266.276C1081.59 266.078 1081.07 265.86 1080.54 265.637C1077.78 264.478 1074.72 263.194 1072.42 263.945C1068.83 265.107 1065.51 267.083 1061.57 269.43C1059.75 270.509 1057.81 271.667 1055.65 272.86C1058.12 272.607 1060.33 272.382 1062.41 272.169C1066.34 271.769 1069.81 271.415 1073.68 271.013C1073.56 272.446 1073.45 273.867 1073.33 275.278C1072.92 280.367 1072.52 285.325 1071.87 290.261C1071.83 290.599 1070.69 290.796 1069.49 291.005C1068.85 291.117 1068.18 291.233 1067.66 291.375C1067.64 293.693 1067.62 296.012 1067.59 298.332C1067.57 300.681 1067.55 303.032 1067.53 305.388ZM1067.61 291.38C1062.77 291.436 1057.97 291.436 1053.15 291.436L1052.12 293.525C1055.27 295.289 1058.42 297.043 1061.4 298.701C1062.51 299.322 1063.6 299.929 1064.66 300.519C1065.06 299.279 1065.42 298.152 1065.76 297.101C1066.45 294.986 1067.04 293.179 1067.61 291.38ZM1078.31 335.595C1076.65 334.531 1075.01 333.488 1073.42 332.481C1072.9 332.155 1072.39 331.834 1071.89 331.516C1069.25 346.061 1066.85 359.269 1064.44 372.465L1064.38 372.828C1067.06 371.653 1069.02 369.713 1069.26 367.568C1070.58 356.395 1072.32 345.406 1078.31 335.595ZM943.099 399.788C946.764 409.656 950.062 414.713 952.995 414.959C952.543 411.968 952.098 408.992 951.682 406.213C951.43 404.522 951.188 402.904 950.962 401.4C949.542 401.112 947.796 400.753 945.93 400.37C945.007 400.18 944.055 399.984 943.099 399.788ZM1173.09 295.382L1173.13 294.532L1172.83 294.793C1172.92 294.989 1173 295.185 1173.09 295.382ZM1171.76 325.812C1170.76 328.539 1169.78 331.259 1168.68 334.31C1168.02 336.118 1167.33 338.041 1166.56 340.151C1168.23 343.49 1170.44 347.962 1173.01 353.154C1173.78 354.72 1174.59 356.352 1175.42 358.037C1174.09 346.3 1172.92 336.051 1171.76 325.812ZM1153.97 326.63C1143.78 328.693 1147.34 333.742 1150.17 337.751C1150.95 338.848 1151.67 339.867 1152.04 340.726C1152.52 337.178 1153.24 331.915 1153.97 326.63ZM779.34 186.428C779.339 186.355 779.338 186.282 779.338 186.209L779.226 186.414C779.264 186.418 779.302 186.423 779.34 186.428ZM876.5 313.006C876.229 312.163 875.886 311.317 875.543 310.469C874.774 308.568 874.002 306.661 874.028 304.771C874.065 302.35 874.689 299.947 875.492 296.851C875.896 295.294 876.345 293.563 876.788 291.566C877.215 292.933 877.504 294.24 877.766 295.42C878.282 297.75 878.689 299.59 879.828 300.444C881.421 301.651 883.632 302.036 885.982 302.444C887.044 302.629 888.135 302.819 889.209 303.092C889.145 303.337 888.946 304.029 888.707 304.865C888.6 305.237 888.485 305.637 888.37 306.039H888.351C887.438 307.839 886.524 309.643 885.61 311.448C884.698 313.248 883.786 315.048 882.875 316.844C883.877 317.682 884.987 318.461 886.097 319.24C888.536 320.952 890.974 322.663 892.268 325.007C894.443 328.925 895.298 330.819 896.295 330.897C897.154 330.964 898.118 329.683 900.12 327.189V312.455C903.03 330.155 915.787 341.364 925.541 335.451C921.27 323.478 917.036 311.635 913.157 300.798C911.293 298.525 909.376 296.343 907.482 294.187C903.254 289.374 899.141 284.693 895.998 279.425C892.501 273.553 889.7 267.271 886.897 260.981C885.186 257.142 883.473 253.3 881.6 249.546C880.928 248.204 876.863 247.066 876.807 247.14C872.754 254.617 870.272 251.492 867.849 248.441C866.681 246.971 865.527 245.518 864.217 245.275C864.535 260.774 873.431 271.405 886.915 280.32C884.944 280.92 882.826 281.11 880.823 281.289C875.041 281.808 870.229 282.24 872.722 292.201C872.014 290.762 871.737 289.049 871.471 287.399C870.805 283.272 870.202 279.534 863.061 281.439C864.031 287.012 864.977 292.491 865.929 298.014C866.625 302.047 867.325 306.103 868.041 310.236L868.364 310.342C870.94 311.189 873.714 312.1 876.452 312.977C876.468 312.987 876.484 312.996 876.5 313.006ZM667.637 385.807C667.57 385.795 667.502 385.783 667.434 385.771V385.752C666.559 386.187 665.662 386.593 664.766 386.999C662.625 387.967 660.484 388.936 658.631 390.303C657.064 391.46 656.15 393.81 655.609 395.805C655.506 396.181 656.61 396.872 657.687 397.547C658.16 397.843 658.627 398.136 658.985 398.398C657.829 399.747 656.484 401.296 655.185 402.793C654.849 403.179 654.517 403.562 654.192 403.937L653.98 403.778C651.265 401.736 648.41 399.591 645.519 397.409C638.675 408.208 639.327 418.223 648.224 424.08L647.78 424.313C645.088 425.728 642.999 426.826 640.894 427.94C640.541 427.264 640.108 426.593 639.675 425.921C638.736 424.465 637.795 423.007 637.667 421.487C637.354 417.906 637.259 414.307 637.164 410.707C637.068 407.033 636.971 403.359 636.642 399.703C636.488 397.963 635.545 396.293 634.6 394.621C634.168 393.856 633.735 393.09 633.378 392.317C632.767 393.151 632.044 393.96 631.322 394.769C629.749 396.53 628.179 398.287 627.783 400.281C627.303 402.67 627.241 405.14 627.177 407.657C627.115 410.131 627.051 412.65 626.589 415.183C622.02 409.439 621.628 402.613 623.978 395.936C626.104 389.93 628.771 384.895 637.145 383.514C641.316 382.815 645.065 379.488 648.752 376.215C650.374 374.776 651.984 373.347 653.614 372.156C655.759 375.905 657.512 378.964 660.104 383.458C661.175 372.796 662.095 363.552 663.132 353.133C663.36 350.848 663.593 348.507 663.834 346.082C664.804 349.197 665.755 352.274 666.707 355.352C666.86 355.233 667.012 355.114 667.164 354.997C667.845 354.467 668.516 353.946 669.187 353.412C669.751 351.396 670.315 349.383 670.886 347.344C671.958 343.517 673.055 339.6 674.223 335.414C674.521 335.563 672.544 334.5 670.12 333.213C675.622 330.229 680.154 331.871 680.489 337.503C680.732 341.55 681.235 343.602 685.115 344.833C685.72 345.022 686.035 346.122 686.366 347.276C686.525 347.83 686.687 348.396 686.887 348.88C684.531 349.82 682.321 350.707 680.182 351.566C678.12 352.393 676.125 353.194 674.13 353.99C674.241 354.363 674.349 354.736 674.456 355.109C674.563 355.482 674.67 355.855 674.782 356.228H678.233C678.233 357.271 678.24 358.258 678.248 359.208C678.263 361.232 678.278 363.085 678.214 364.938C678.174 366.313 678.022 367.696 677.871 369.076C677.809 369.644 677.746 370.211 677.692 370.776C676.733 369.855 675.766 368.934 674.38 367.615C673.717 366.984 672.959 366.262 672.059 365.405C674.664 373.878 675.573 381.306 667.637 385.807ZM667.786 385.836C674.192 387.093 676.2 391.95 678.407 397.29C680.147 401.5 682.012 406.009 686.253 409.29C684.201 402.49 682.439 396.669 680.875 391.499C679.864 388.16 678.936 385.092 678.065 382.209C676.365 382.808 674.807 383.359 673.331 383.88C671.384 384.567 669.581 385.204 667.786 385.836ZM448.671 357.208C448.387 357.194 448.102 357.18 447.822 357.161L447.785 357.236L447.78 357.202C447.203 353.353 446.626 349.5 445.864 344.478C443.013 346.473 440.495 348.248 438.058 349.966C436.94 350.755 435.838 351.531 434.729 352.312C442.581 361.32 445.453 371.242 442.973 374.301C443.575 376.408 444.105 378.269 444.647 380.171C445.214 382.158 445.793 384.19 446.479 386.592C444.193 385.682 442.25 384.812 440.52 384.036C437.282 382.584 434.787 381.466 432.174 381.052C424.024 379.747 421.58 383.775 423.912 391.833C425.28 396.555 425.824 401.533 426.365 406.481C426.495 407.669 426.624 408.855 426.765 410.036C426.825 410.546 426.256 411.125 425.479 411.916C425.036 412.368 424.525 412.888 424.024 413.505C422.055 409.461 420.26 405.792 418.334 401.855C417.577 400.309 416.8 398.722 415.985 397.055C415.681 399.016 415.42 400.719 415.178 402.299C414.946 403.814 414.731 405.216 414.512 406.623L411.994 407.686C410.68 405.045 409.357 402.405 408.163 400.021C407.612 398.919 407.087 397.872 406.604 396.906C401.177 397.913 394.779 399.106 387.729 400.431C387.809 400.972 387.719 400.325 387.488 398.649C387.393 397.959 387.274 397.094 387.133 396.066C386.205 396.856 385.347 397.586 384.531 398.28C382.59 399.931 380.893 401.375 379.094 402.911C378.119 400.835 376.993 398.446 375.762 395.833C374.428 393.001 372.971 389.907 371.447 386.666C370.764 388.953 370.143 390.979 369.445 393.259C369.209 394.029 368.965 394.827 368.706 395.675C362.495 381.426 363.502 379.672 376.427 374.637C378.037 374.002 379.012 371.934 380.024 369.79C380.677 368.407 381.345 366.991 382.209 365.908C384.109 363.533 386.276 361.274 388.439 359.021C392.813 354.462 397.165 349.926 399.237 344.497C401.122 339.54 404.377 339.053 407.479 338.588C409.442 338.295 411.343 338.01 412.796 336.608L412.797 336.61C413.412 337.803 414.027 338.996 414.978 340.842C417.746 335.529 420.365 330.495 422.984 325.461L423.016 325.399C423.781 325.697 424.527 325.977 425.292 326.275C425.804 328.608 426.323 330.942 426.743 332.83C427.012 334.036 427.239 335.06 427.399 335.787C428.701 334 430.006 332.192 431.318 330.373C435.042 325.211 438.828 319.965 442.786 314.861C443.844 313.48 445.376 312.466 446.904 311.453C447.585 311.002 448.266 310.551 448.904 310.068C449.395 311.142 450.102 312.36 450.812 313.581C452.393 316.302 453.984 319.041 453.212 320.251C450.233 324.911 450.391 329.7 450.548 334.466C450.621 336.683 450.694 338.894 450.452 341.084C450.045 344.733 449.898 348.417 449.751 352.1C449.683 353.82 449.614 355.539 449.519 357.254C449.24 357.236 448.955 357.222 448.671 357.208ZM361.32 368.333C360.91 369.041 360.518 369.731 360.108 370.422H360.07C358.07 367.616 356.06 364.81 354.145 362.137C353.399 361.096 352.668 360.075 351.957 359.082C349.066 363.912 345.859 369.265 342.651 374.618C342.399 374.553 342.147 374.483 341.895 374.413C341.643 374.343 341.392 374.273 341.14 374.208V347.966C342.912 349.85 344.049 351.062 345.747 352.89V343.098C349.197 344.851 352.125 346.325 352.647 346.586C353.49 348.696 354.286 350.69 355.047 352.597C357.355 358.376 359.343 363.354 361.32 368.333ZM1003.56 112.406C1004.53 105.762 1005.52 99.0417 1017.58 101.609C1019.65 116.324 1013.37 123.3 1001.67 119.775C1002.78 117.737 1003.17 115.078 1003.56 112.406ZM299.045 432.771C296.583 431.428 294.121 430.104 291.343 428.612L291.361 428.63C290.82 429.675 289.813 431.689 288.899 433.517L288.899 433.517C281.023 432.415 281.962 428.643 282.994 424.499C283.588 422.117 284.211 419.613 283.211 417.421C284.416 418.052 285.538 418.639 286.616 419.204C289.042 420.473 291.246 421.626 293.674 422.905V411.807C293.925 411.737 294.173 411.669 294.419 411.603C294.758 411.511 295.092 411.42 295.427 411.323C295.977 412.679 296.567 414.025 297.157 415.37C298.587 418.629 300.015 421.886 300.873 425.292C301.256 426.798 300.574 428.565 299.89 430.338C299.574 431.156 299.257 431.976 299.045 432.771ZM796.935 240.14C796.949 237.893 796.963 235.623 796.963 233.32V233.339C801.694 234.653 802.423 238.796 803.177 243.073C803.92 247.295 804.687 251.648 809.347 253.538C808.657 254.172 807.986 254.787 807.296 255.421C806.651 255.14 806.011 254.859 805.283 254.539C804.515 254.201 803.649 253.82 802.577 253.351C802.39 256.578 802.223 259.45 802.055 262.303C801.663 262.527 801.271 262.747 800.879 262.966C800.487 263.185 800.096 263.404 799.705 263.628C799.416 263.003 799.056 262.382 798.697 261.761C797.92 260.419 797.145 259.08 797.094 257.715C796.863 251.927 796.899 246.118 796.935 240.14ZM1101.88 394.817C1101.52 395.085 1101.16 395.353 1100.8 395.619V395.6C1099.94 394.823 1098.82 393.952 1097.69 393.081C1095.22 391.172 1092.75 389.261 1093.08 388.326C1094.4 384.583 1096.73 381.195 1099.06 377.811C1099.93 376.541 1100.8 375.271 1101.62 373.984C1102.76 374.45 1103.88 374.898 1105 375.364C1104.79 378.376 1104.59 381.383 1104.39 384.391C1104.19 387.398 1103.99 390.406 1103.79 393.418C1103.15 393.88 1102.51 394.349 1101.88 394.817ZM825.872 147.098C825.536 156.946 829.042 160.023 840.214 160.359C840.724 151.755 835.943 147.334 825.872 147.098ZM823.205 328.29L824.1 325.156V325.175C833.518 327.618 842.937 330.061 854.109 332.952C845.073 339.247 845.063 339.238 839.79 334.493L839.673 334.388C838.405 333.251 835.85 331.442 835.421 331.796C831.314 335.18 829.331 333.025 827.371 330.895C826.145 329.562 824.927 328.239 823.205 328.29ZM768.166 139.862C765.126 139.321 762.012 138.761 758.319 138.09C759.195 132.849 759.792 129.249 760.37 125.724C770.684 124.009 772.288 126.806 768.166 139.862ZM615.594 291.846C614.267 291.846 612.886 291.827 611.467 291.807C607.664 291.754 603.585 291.697 599.527 291.995C597.904 292.107 595.909 293.86 595.107 295.39C594.659 296.229 595.964 298.989 597.102 299.493C602.205 301.802 613.279 296.356 615.594 291.846ZM1000.35 274.24C993.896 275.172 988.953 266.966 988.245 251.859C990.353 255.751 992.457 259.643 994.583 263.577C996.48 267.089 998.396 270.633 1000.35 274.24ZM277.914 318.535C278.772 318.162 279.63 317.789 280.488 317.435C285.356 328.905 290.224 340.357 295.091 351.808C294.616 352.004 294.14 352.204 293.665 352.405C293.189 352.605 292.713 352.806 292.238 353.002L277.914 318.535ZM876.322 319.002C886.71 324.951 889.844 330.099 892.846 346.605C891.147 343.766 889.448 340.926 887.702 338.008C884.217 332.183 880.547 326.048 876.322 319.002ZM267.394 293.436C268.194 292.261 269.176 290.818 270.472 288.993C273.214 295.837 275.098 300.519 277.392 306.207C272.048 304.426 267.983 303.063 263.059 301.412C261.744 300.972 260.368 300.51 258.89 300.015C259.746 299.681 260.511 299.437 261.184 299.222C262.464 298.815 263.415 298.512 264.038 297.889C265.085 296.83 265.938 295.576 267.394 293.436ZM273.512 280.125C274.011 279.943 274.51 279.761 275.005 279.574C276.888 285.047 278.767 290.524 280.645 296.002C282.525 301.482 284.404 306.961 286.288 312.437C285.953 312.567 285.612 312.693 285.272 312.819C284.931 312.945 284.591 313.071 284.255 313.201C282.213 307.783 280.175 302.36 278.138 296.938C276.1 291.515 274.063 286.092 272.02 280.674C272.514 280.488 273.013 280.306 273.512 280.125ZM380.698 275.639C379.766 276.105 378.814 276.59 377.863 277.075C376.296 273.558 374.733 270.046 373.171 266.534C371.609 263.024 370.048 259.514 368.482 256C369.806 255.459 371.149 254.899 372.473 254.34C373.844 257.894 375.216 261.444 376.587 264.994C377.958 268.54 379.328 272.087 380.698 275.639ZM1136.74 397.206C1134.75 400.372 1133 403.137 1131.18 406.031C1129.98 407.926 1128.76 409.876 1127.4 412.031C1127.43 412.056 1127.51 412.109 1127.63 412.188C1128.29 412.635 1130.2 413.91 1131.8 415.482C1132.33 415.996 1132.4 416.962 1132.48 417.928C1132.51 418.363 1132.54 418.799 1132.62 419.193C1132.92 418.8 1133.28 418.416 1133.65 418.032C1134.44 417.197 1135.23 416.364 1135.34 415.444C1135.84 411.329 1136.1 407.172 1136.4 402.422C1136.51 400.763 1136.61 399.033 1136.74 397.206ZM1094.53 375.718H1087.56V382.824C1087.26 382.765 1086.93 382.732 1086.6 382.7C1085.9 382.631 1085.23 382.565 1085.06 382.246C1081.4 375.211 1085.49 372.557 1090.42 369.356C1091.77 368.475 1093.19 367.553 1094.53 366.486V375.718ZM307.028 344.771L307.046 344.758C308.944 348.441 310.835 352.13 312.727 355.822C313.978 358.263 315.229 360.706 316.484 363.148L313.929 364.714C312.24 361.748 310.556 358.781 308.872 355.814C307.189 352.85 305.507 349.886 303.82 346.922C304.877 346.217 305.952 345.494 307.028 344.771ZM813.469 161.235L810.597 161.011V161.03C809.03 156.442 807.463 151.873 805.766 146.949C806.219 147.04 806.934 147.101 807.743 147.171C809.902 147.355 812.733 147.597 813.059 148.627C813.925 151.388 813.762 154.473 813.599 157.562C813.534 158.793 813.469 160.024 813.469 161.235ZM690.281 373.835C679.669 375.364 679.445 376.278 685.245 389.557C686.868 384.484 688.379 379.766 690.281 373.835ZM255.048 304.696C251.542 305.517 250.355 300.345 251.486 289.179C252.441 293.376 253.407 297.573 254.377 301.78C254.6 302.752 254.824 303.724 255.048 304.696Z" fill="#2DD9E2" style="mix-blend-mode:exclusion"/>
<path d="M1087.56 293.786C1085.68 297.367 1083.31 301.862 1080.94 306.357C1080.06 305.909 1079.19 305.48 1078.31 305.033C1078.16 301.955 1078.01 298.859 1077.86 295.465C1082.15 294.719 1086.16 294.029 1087.58 293.786H1087.56Z" fill="#2DD9E2" style="mix-blend-mode:exclusion"/>
<path d="M1101.06 341.345C1099.51 342.147 1097.89 343.714 1096.42 343.583C1093.49 343.341 1090.64 342.184 1088.55 341.606C1090.81 337.615 1093.51 332.84 1096.2 328.066C1099.87 331.74 1092.11 339.611 1101.06 341.345Z" fill="#2DD9E2" style="mix-blend-mode:exclusion"/>
</svg>
