<svg width="559" height="723" viewBox="0 0 559 723" fill="none" xmlns="http://www.w3.org/2000/svg">
<path fill-rule="evenodd" clip-rule="evenodd" d="M167.761 369.676C167.749 369.665 167.736 369.654 167.724 369.643H167.767C167.765 369.654 167.763 369.665 167.761 369.676ZM173.387 374.883C170.832 372.512 169.653 371.418 167.761 369.676C162.848 396.209 164.069 544.4 170.569 553.702V463.02C172.14 469.004 172.393 474.977 172.644 480.917C172.752 483.472 172.86 486.021 173.072 488.562C173.329 491.536 175.875 495.066 178.399 496.97C187.191 503.558 193.566 501.932 197.524 490.295V531.261C197.766 531.25 198.003 531.239 198.24 531.228C198.463 531.218 198.686 531.207 198.914 531.197C199.455 526.682 199.992 522.166 200.552 517.454C201.322 510.981 202.136 504.138 203.064 496.413C204.479 501.353 204.572 506.455 204.661 511.388C204.856 522.115 205.036 532.049 218.766 537.807C219.071 536.524 219.415 535.317 219.744 534.16C220.43 531.75 221.054 529.558 221.141 527.346C221.335 522.075 221.542 516.804 221.748 511.533C222.544 491.247 223.34 470.969 223.408 450.677C223.469 433.804 222.873 416.931 222.277 400.058C222.033 393.142 221.789 386.227 221.59 379.312C221.397 372.723 222.167 366.477 230.575 366.648C235.199 366.752 239.813 367.502 244.424 368.253C246.468 368.585 248.511 368.918 250.555 369.194L250.255 371.975C248.747 371.975 247.236 372.009 245.726 372.044C242.356 372.122 238.99 372.199 235.666 371.889C230.125 371.376 228.029 373.365 227.965 378.991C227.604 407.372 227.182 435.759 226.76 464.146C226.432 486.213 226.103 508.279 225.804 530.341C225.755 532.977 226.094 535.612 226.314 537.317C226.381 537.841 226.437 538.277 226.467 538.599C232.602 538.599 238.672 538.608 244.693 538.618C264.053 538.649 282.904 538.679 301.768 538.385C303.831 538.341 305.863 536.897 307.893 535.454C308.832 534.787 309.77 534.121 310.71 533.593C305.218 532.795 300.264 533.176 295.438 533.547C293.666 533.683 291.91 533.818 290.152 533.893C277.424 534.427 274.065 528.502 279.477 517.87C284.226 518.405 288.59 518.897 292.548 519.346C291.854 517.526 291.077 515.823 290.404 514.35C289.211 511.736 288.348 509.846 288.868 509.313C293.029 505.088 297.57 501.268 302.756 496.904C304.53 495.412 306.379 493.856 308.314 492.199C307.758 491.022 305.961 487.15 303.843 482.573C304.82 482.799 305.679 482.997 306.569 483.202C308.115 483.558 309.752 483.935 312.25 484.519C310.205 480.48 308.451 477.007 306.78 473.7C305.62 471.402 304.5 469.185 303.351 466.913C305.989 461.237 305.034 456.51 300.484 452.73C304.49 440.798 308.178 429.842 311.864 418.889L311.908 418.759C311.662 418.727 311.41 418.701 311.159 418.674C310.908 418.647 310.656 418.62 310.41 418.588C308.539 420.824 306.667 423.065 304.795 425.305C302.923 427.546 301.051 429.787 299.179 432.023C297.955 429.713 296.794 427.503 295.732 425.481C295.161 424.394 294.618 423.361 294.109 422.396C297.107 419.978 299.791 417.804 302.534 415.584C303.842 414.524 305.163 413.454 306.538 412.342C305.331 411.208 304.314 410.255 303.382 409.38C302.415 408.473 301.538 407.651 300.634 406.801C301.604 405.466 302.529 404.188 303.412 402.969C304.75 401.122 305.99 399.41 307.137 397.838C305.583 396.688 304.144 395.622 302.763 394.598C301.009 393.297 299.348 392.066 297.661 390.821C299.174 390.521 300.719 390.372 302.184 390.229C305.213 389.936 307.9 389.675 309.255 388.19C311.101 386.179 311.81 383.126 312.519 380.073C312.821 378.773 313.123 377.473 313.512 376.253L316.336 376.638C316.409 377.664 316.503 378.692 316.597 379.721C316.805 381.996 317.014 384.274 316.999 386.543C316.852 401.64 316.684 416.738 316.516 431.838C316.147 465.073 315.777 498.311 315.63 531.539C315.587 539.454 312.015 540.439 305.319 541.187C295.789 542.236 286.181 542.708 276.558 543.181C254.771 544.252 232.904 545.327 211.685 553.103C212.404 554.312 213.145 555.487 213.879 556.648C215.415 559.08 216.916 561.458 218.103 563.991C222.06 572.441 219.9 586.218 213.375 589.256C202.273 594.411 199.663 603.268 199.898 614.263C200.077 622.707 200.096 631.16 200.116 639.616C200.127 644.314 200.138 649.012 200.176 653.71C200.188 654.962 200.156 656.23 200.124 657.501C199.92 665.7 199.713 673.976 211.086 678.162C203.162 679.871 195.627 680.988 188.287 682.076C183.223 682.827 178.251 683.564 173.307 684.472C171.458 684.81 169.92 686.841 168.384 688.87C167.681 689.797 166.979 690.724 166.248 691.489C167.116 692.093 168.002 692.882 168.887 693.67C170.795 695.369 172.703 697.069 174.441 696.923C195.445 695.098 216.415 693.009 237.388 690.919C249.61 689.701 261.833 688.483 274.065 687.318C286.72 686.123 299.395 685.132 312.07 684.14C317.778 683.694 323.487 683.248 329.193 682.783C329.257 683.424 329.321 684.087 329.385 684.729C323.599 685.36 317.807 685.991 312.015 686.622C306.223 687.253 300.431 687.885 294.644 688.516C295.864 690.313 296.869 690.441 297.853 690.313C310.318 688.821 322.782 687.322 335.244 685.824C369.622 681.69 403.995 677.556 438.379 673.584C442.786 673.07 447.577 673.691 451.899 674.867C455.159 675.752 458.356 676.938 461.548 678.123C466.002 679.776 470.447 681.425 475.045 682.248C483.816 683.831 498.641 682.59 502.085 674.611C505.401 666.888 508.503 658.823 509.85 650.609C510.095 649.151 508.165 647.482 506.061 645.663C504.491 644.306 502.825 642.866 501.892 641.367C500.01 638.329 498.47 634.393 498.577 630.906C499.325 603.546 500.331 576.206 501.636 548.867C503.561 508.748 505.556 468.64 507.55 428.532C509.545 388.419 511.54 348.306 513.466 308.183C516.995 235.064 520.418 161.924 523.52 88.7628C523.798 81.8317 526.729 79.7138 532.633 78.5801C538.547 77.4417 544.409 76.0479 550.425 74.6176C553.114 73.9782 555.834 73.3316 558.603 72.6972C557.94 66.416 557.331 60.7712 556.729 55.2027C556.476 52.8627 556.225 50.5363 555.972 48.1817C540.469 46.2197 525.064 44.1957 509.719 42.1798C475.708 37.7113 441.997 33.2824 408.194 29.656C377.284 26.3423 346.481 22.0978 315.675 17.8529C260.368 10.2319 205.052 2.60954 149.091 0.370024C126.758 -0.52845 105.173 -0.14339 83.7596 5.56834C58.1103 12.4139 32.5893 19.6872 7.11115 27.1531C4.24459 27.9874 -0.226389 31.6027 0.00892547 33.3996C1.03575 40.9939 2.70435 48.7807 5.95597 55.6048C6.81046 57.4358 9.53966 58.3037 12.3606 59.2008C13.9889 59.7186 15.6478 60.2462 16.9944 60.9742C18.4686 61.7714 19.9677 62.4714 21.4402 63.159C28.6211 66.5119 35.1705 69.57 35.135 82.174C34.8783 158.947 35.3891 235.731 35.8998 312.511C36.1126 344.498 36.3254 376.485 36.4827 408.47C36.8891 490.937 37.1886 573.404 37.2528 655.871C37.2528 664.856 43.4352 669.583 49.425 668.771C60.2923 667.294 68.2288 670.632 76.6573 676.408C80.9052 679.313 85.7531 681.334 90.5979 683.354C92.7799 684.263 94.9613 685.173 97.0869 686.162C97.7287 685.275 98.3705 684.382 99.0122 683.488C99.654 682.595 100.296 681.702 100.938 680.814C100.267 680.564 99.5881 680.322 98.9083 680.08C97.2692 679.496 95.6218 678.909 94.0492 678.183C90.628 676.599 87.2247 674.976 83.8218 673.353C78.9049 671.008 73.9888 668.664 69.0203 666.439C60.1211 662.46 54.495 656.834 55.9282 646.031C56.8909 638.65 57.0193 631.142 57.1262 623.697C57.6534 583.492 58.1425 543.278 58.6317 503.067C58.877 482.9 59.1223 462.733 59.3724 442.569C59.5863 425.528 59.7514 408.485 59.9164 391.442C60.3289 348.836 60.7415 306.229 61.9181 263.644C62.3579 247.694 64.3751 231.793 66.393 215.888C67.3195 208.585 68.2462 201.28 69.0203 193.97C72.657 200.837 74.6465 207.918 76.5932 215.02C77.5025 218.336 78.4064 221.658 79.3104 224.979C80.2141 228.3 81.1177 231.621 82.0268 234.936L78.3045 237.31C77.6839 235.919 77.0633 234.523 76.4427 233.127C75.8225 231.731 75.2024 230.336 74.5823 228.946C74.0472 229.289 73.5122 229.636 72.9771 229.984C72.4426 230.332 71.908 230.679 71.3735 231.021C72.0454 232.352 72.647 233.742 73.2484 235.132C74.5807 238.212 75.9121 241.29 78.005 243.707C82.6258 249.033 83.075 252.927 79.6522 259.644C77.3675 264.11 76.8525 269.481 76.3375 274.851C76.11 277.224 75.8824 279.597 75.5022 281.892C76.2929 282.063 77.0783 282.229 77.8638 282.394C78.6507 282.56 79.4376 282.726 80.2298 282.897C82.0696 273.378 83.8879 263.88 85.7063 254.381C86.6264 254.531 87.5466 254.676 88.4668 254.82C89.3863 254.965 90.3059 255.109 91.2254 255.259C90.3698 262.73 89.5251 270.202 88.6601 277.852C88.314 280.913 87.9647 284.003 87.6102 287.133C94.0706 283.154 94.912 268.151 90.1345 242.124C102.841 237.118 102.97 236.605 95.9745 224.689C94.9332 224.982 93.7056 225.406 92.4985 225.824C89.9115 226.719 87.4186 227.582 87.054 227.042C85.1107 224.096 83.8218 220.725 82.5313 217.35C82.0602 216.117 81.5889 214.885 81.0855 213.672C81.984 213.308 82.8825 212.966 83.781 212.624C85.2998 216.111 86.8186 219.598 88.6798 223.833C89.3809 223.044 90.0363 222.361 90.6379 221.734C91.7799 220.544 92.7283 219.556 93.4288 218.421C95.3137 215.358 97.0487 212.214 98.7862 209.066C99.415 207.927 100.044 206.787 100.681 205.65C101.724 207.726 102.772 209.801 103.962 212.159C105.237 214.684 106.676 217.534 108.446 221.052C108.792 219.11 109.128 217.429 109.43 215.916C110.006 213.029 110.46 210.754 110.628 208.452C111.388 198.184 112.094 187.905 112.8 177.626C113.505 167.347 114.211 157.068 114.971 146.8C115.484 139.719 124.041 133.43 129.689 136.082C131.721 137.047 133.454 138.662 135.187 140.277C135.99 141.025 136.792 141.773 137.625 142.457C137.732 141.88 137.845 141.297 137.957 140.714C138.069 140.131 138.181 139.548 138.288 138.97C139.365 139.013 140.442 139.068 141.519 139.122C143.672 139.232 145.826 139.341 147.979 139.355C149.562 139.377 151.273 139.313 152.707 138.756C161.841 135.205 165.713 137.366 165.863 147.613C166.457 186.519 166.87 225.426 167.283 264.333C167.421 277.302 167.558 290.272 167.703 303.241C167.725 304.595 167.642 305.966 167.559 307.335C167.406 309.862 167.254 312.378 167.767 314.75C168.99 320.374 170.374 325.965 171.759 331.555C173.934 340.338 176.107 349.116 177.65 358.006C178.255 361.478 177.181 365.242 175.991 369.414C175.414 371.437 174.81 373.555 174.356 375.782L173.387 374.883ZM370.009 512.308C364.918 497.804 367.528 488.733 382.032 477.481H382.053C382.354 477.749 382.718 478.004 383.087 478.262C383.896 478.83 384.727 479.412 384.962 480.177C389.134 493.889 399.295 500.2 412.28 504.029C414.762 504.756 417.414 509.997 417.414 513.121C417.286 533.251 416.687 553.381 415.489 573.468C415.339 576.057 411.125 580.121 408.323 580.57C400.216 581.878 392.046 582.746 383.876 583.614C378.678 584.166 373.48 584.718 368.298 585.384C361.5 586.256 359.409 582.139 357.175 577.737C356.723 576.848 356.265 575.947 355.762 575.073C350.221 565.446 350.991 556.033 356.083 546.899C357.79 543.832 359.813 540.926 361.834 538.023C364.423 534.304 367.008 530.592 368.918 526.555C370.843 522.469 371.485 516.479 370.009 512.308ZM202.7 482.038C201.85 482.097 201 482.155 200.155 482.209V482.187C199.843 479.298 199.708 476.338 199.573 473.377C199.273 466.803 198.974 460.225 196.732 454.399C194.576 448.789 193.986 442.712 193.396 436.636C192.371 426.076 191.347 415.523 182.1 407.443C177.008 402.993 177.179 387.955 182.549 383.826C184.612 382.24 187.678 381.962 191.646 381.601C193.726 381.412 196.054 381.201 198.615 380.767C193.44 345.407 196.652 309.784 199.888 273.898C201.789 252.815 203.698 231.642 203.92 210.378C205.398 210.398 206.856 210.44 208.333 210.481L208.455 210.485L205.246 481.867C204.401 481.92 203.551 481.979 202.7 482.038ZM428.324 231.107L433.715 231.299H433.737C432.304 272.428 430.878 313.556 429.451 354.684C428.022 395.873 426.593 437.062 425.158 478.251L422.527 478.636C422.297 476.878 421.999 475.117 421.7 473.355C421.054 469.545 420.408 465.732 420.452 461.929C420.752 433.563 421.393 405.175 422.056 376.809C422.102 374.707 422.407 372.6 422.711 370.5C423.122 367.664 423.531 364.839 423.297 362.049C423.115 359.799 421.777 357.646 420.442 355.499C419.898 354.624 419.355 353.751 418.89 352.871C418.416 351.972 417.808 351.084 417.202 350.2C415.978 348.413 414.762 346.638 414.676 344.806C414.449 339.956 414.778 335.094 415.134 329.829C415.281 327.642 415.434 325.384 415.553 323.029C422.848 321.981 423.982 316.226 424.217 308.269C424.791 289.614 425.927 270.97 427.062 252.329C427.493 245.255 427.924 238.181 428.324 231.107ZM245.783 269.89C245.791 269.883 245.798 269.876 245.806 269.869L245.784 269.891C245.784 269.891 245.784 269.89 245.783 269.89ZM241.309 273.512C242.815 272.372 244.398 271.175 245.783 269.89C244.682 269.099 243.107 267.956 241.313 266.655C239.761 265.53 238.045 264.285 236.329 263.045L237.998 260.286C243.923 263.345 249.828 266.404 255.924 269.57C255.995 269.438 256.199 269.063 256.493 268.524C256.913 267.754 257.516 266.65 258.171 265.441C261.807 268.286 265.166 270.939 268.845 273.848C267.15 274.423 265.375 275.029 263.551 275.652C261.369 276.397 259.116 277.165 256.844 277.934C257.422 280.544 257.999 283.175 258.77 286.705C257.27 286.525 256.014 286.368 254.873 286.226C253.85 286.098 252.919 285.982 251.988 285.871C252.021 286.472 252.048 287.079 252.075 287.688C252.102 288.272 252.128 288.858 252.159 289.443C254.451 289.272 256.736 289.106 259.391 288.913C261.692 288.746 264.27 288.559 267.369 288.331C267.326 289.177 267.384 290.183 267.445 291.267C267.599 293.968 267.78 297.157 266.513 299.583C263.155 305.98 243.838 311.028 239.923 305.381C235.431 298.899 235.259 288.673 235.366 280.116C235.395 277.985 238.188 275.872 241.309 273.512ZM256.437 516.041C257.775 515.04 259.123 514.03 260.459 513.57H260.481C268.909 526.362 265.658 533.764 251.817 535.026C242.133 535.921 237.473 536.355 235.067 534.233C232.583 532.042 232.501 527.128 231.772 517.185C230.767 503.28 237.891 500.948 249.421 500.563C250.24 502.477 251.112 504.5 252.081 506.745C252.834 508.49 253.645 510.369 254.534 512.436H246.062C249.125 521.514 252.741 518.807 256.437 516.041ZM279.493 299.094C278.718 298.544 277.921 297.978 277.103 297.38C279.242 292.909 281.167 288.887 282.921 285.25C285.121 285.808 287.215 286.342 289.252 286.862C291.591 287.459 293.856 288.037 296.12 288.609C296.274 287.983 296.421 287.351 296.569 286.715C296.688 286.2 296.809 285.682 296.933 285.165C296.11 284.888 295.287 284.607 294.378 284.297C293.044 283.842 291.526 283.324 289.553 282.662C291.44 279.363 293.215 276.271 294.627 273.812C295.439 272.396 296.131 271.19 296.655 270.276C297.716 270.859 298.683 271.384 299.581 271.872C301.782 273.068 303.572 274.041 305.319 275.089C305.73 275.336 306.22 275.598 306.725 275.868C308.322 276.722 310.079 277.662 310.047 278.491C309.98 280.623 310.065 282.926 310.152 285.252C310.397 291.863 310.649 298.666 307.437 302.322C302.944 307.413 292.077 309.039 284.141 302.557C282.675 301.352 281.13 300.256 279.493 299.094ZM394.329 357.198C394.22 361.583 393.879 375.299 378.737 373.857C379.839 364.544 380.924 355.321 382.004 346.144C383.085 336.961 384.16 327.824 385.24 318.687C385.676 318.666 386.117 318.64 386.56 318.614C387.031 318.587 387.505 318.559 387.979 318.537C388.665 322.122 389.487 325.711 390.31 329.3C392.437 338.58 394.564 347.861 394.332 357.086L394.329 357.198ZM310.218 312.44C315.031 296.674 314.026 281.058 311.394 266.19L311.373 266.211C315.217 259.131 315.528 251.491 315.839 243.855C316.107 237.256 316.376 230.66 318.924 224.432C318.924 227.83 318.937 231.229 318.95 234.63C318.978 241.999 319.006 249.372 318.903 256.735C318.803 264.703 318.632 272.665 318.462 280.627C318.306 287.928 318.15 295.229 318.047 302.535C317.983 308.482 317.106 313.381 310.218 312.44ZM244.565 407.678L247.218 407.828L247.239 407.807C246.191 409.967 245.143 412.106 245.078 412.235C247.749 415.856 250.2 419.188 252.508 422.325C254.767 425.395 256.888 428.277 258.941 431.06C257.18 430.39 255.509 429.752 253.903 429.139C249.147 427.323 244.969 425.728 240.779 424.193C240.29 424.009 239.543 423.989 238.917 423.973C238.309 423.957 237.815 423.945 237.784 423.787C237.463 422.288 237.118 420.788 236.772 419.286C235.617 414.273 234.458 409.24 234.211 404.17C234.07 401.494 234.996 398.762 236.129 395.422C236.708 393.715 237.34 391.85 237.912 389.752C240.971 398.009 242.768 402.844 244.565 407.678ZM422.313 600.123C420.73 600.101 419.169 600.08 417.585 600.08V600.059C418.334 584.003 419.078 567.948 419.821 551.892C420.564 535.838 421.308 519.784 422.056 503.729C422.142 503.772 422.313 503.815 422.313 503.815V600.123ZM261.679 219.662L262.513 221.78H262.492C260.011 224.698 257.539 227.616 254.948 230.674C253.607 232.257 252.234 233.878 250.812 235.556C247.731 234.872 243.025 233.824 237.784 232.647V207.725C239.078 208.175 240.317 208.607 241.528 209.029C245.322 210.35 248.843 211.577 252.929 212.987C252.366 213.377 251.845 213.696 251.373 213.985C250.446 214.552 249.71 215.002 249.229 215.64C248.052 217.203 247.044 218.867 246.034 220.535C245.647 221.172 245.261 221.81 244.865 222.443C245.794 222.493 246.73 222.583 247.666 222.673C249.894 222.887 252.123 223.102 254.277 222.785C256.059 222.518 257.747 221.643 259.436 220.768C260.181 220.382 260.926 219.996 261.679 219.662ZM234.511 455.19V446.484C236.677 446.338 238.765 446.198 240.799 446.061C245.312 445.759 249.559 445.474 253.807 445.179V442.612C255.614 443.707 257.421 444.793 259.148 445.832C260.221 446.477 261.264 447.104 262.256 447.703L261.975 447.95C254.299 454.677 246.43 461.573 234.511 455.19ZM210.915 633.409L207.835 632.96C208.605 628.275 209.375 623.59 210.124 618.948C209.759 618.29 209.347 617.594 208.915 616.864C207.674 614.767 206.268 612.389 205.332 609.835C205.054 609.086 207.984 605.963 209.204 606.091C211.685 606.391 215.686 607.739 216.071 609.364C217.119 613.857 217.418 618.884 216.52 623.398C216.031 625.869 214.468 628.126 212.906 630.38C212.21 631.384 211.515 632.388 210.915 633.409ZM176.274 309.755C175.369 309.216 174.456 308.673 173.543 308.14V308.119V290.214C179.276 292.438 184.089 294.299 188.902 296.161C186.978 298.534 185.059 300.907 183.141 303.28C181.219 305.656 179.298 308.032 177.372 310.408C177.008 310.192 176.642 309.974 176.274 309.755ZM292.013 310.558L292.12 312.804H236.072C236.051 312.055 236.051 311.306 236.051 310.558H292.013ZM295.734 379.26C297.424 379.506 299.12 379.754 300.762 379.697V379.719C294.73 386.564 289.51 392.49 283.007 399.892C279.819 394.907 280.162 389.11 283.007 383.912C286.318 377.889 291 378.571 295.734 379.26ZM226.762 271.97C227.128 271.989 227.498 272.009 227.858 272.009V311.777C226.443 311.714 225.009 311.672 223.594 311.631L223.472 311.627C223.932 305.017 224.392 298.401 224.852 291.786C225.312 285.17 225.772 278.555 226.232 271.945C226.407 271.952 226.584 271.961 226.762 271.97ZM252.865 382.05C264.973 378.371 265.465 379.548 259.347 403.528L259.341 403.508C257.182 396.37 255.024 389.231 252.865 382.05ZM489.57 663.272C489.618 663.748 489.667 664.224 489.72 664.706L444.283 669.84L443.984 667.252C459.129 665.433 474.275 663.636 489.421 661.839C489.474 662.32 489.522 662.796 489.57 663.272ZM299.736 487.3C282.044 481.375 281.424 481.674 277.103 496.328C284.098 493.547 290.537 490.98 299.736 487.3ZM309.533 209.843C302.388 223.619 302.773 229.203 309.533 231.15V209.843ZM263.663 463.515C263.339 466.783 263.076 469.434 262.813 472.005H262.791C261.737 472.202 260.735 472.389 259.772 472.568C257.394 473.012 255.247 473.412 253.101 473.823C252.748 473.449 252.395 473.069 252.042 472.69C251.689 472.31 251.336 471.93 250.983 471.556C254.153 468.437 257.309 465.305 261.294 461.35C262.203 460.448 263.155 459.504 264.16 458.506C263.977 460.345 263.813 461.997 263.663 463.515ZM246.641 491.066L245.1 490.809V490.787C250.048 489.055 254.16 487.609 257.881 486.301C260.595 485.347 263.101 484.465 265.572 483.599C265.021 485.756 264.359 488.392 263.67 491.135C263.45 492.011 263.228 492.897 263.005 493.782C258.937 493.121 254.08 492.309 246.641 491.066ZM190.686 698.744C190.697 698.736 190.709 698.727 190.72 698.719V698.741C190.709 698.742 190.697 698.743 190.686 698.744ZM190.686 698.744C185.963 699.206 180.902 699.7 175.549 700.222C165.054 701.246 153.441 702.379 141.069 703.597C143.635 704.808 145.809 705.841 147.765 706.77C149.918 707.793 151.808 708.691 153.669 709.565C153.099 711.447 152.582 713.141 152.019 714.986C151.334 717.231 150.581 719.7 149.583 722.999C151.564 722.378 153.36 721.926 154.987 721.516C158.067 720.739 160.545 720.115 162.546 718.785C169.831 713.934 176.908 708.772 183.6 703.89C186.015 702.129 188.379 700.404 190.686 698.744Z" fill="#FF2B2F" style="mix-blend-mode:exclusion"/>
</svg>
